<?xml version="1.0" encoding="utf-8"?>
<!-- Generator: Adobe Illustrator 17.0.0, SVG Export Plug-In . SVG Version: 6.00 Build 0)  -->
<!DOCTYPE svg PUBLIC "-//W3C//DTD SVG 1.1//EN" "http://www.w3.org/Graphics/SVG/1.1/DTD/svg11.dtd">
<svg version="1.1" id="图层_2" xmlns="http://www.w3.org/2000/svg" xmlns:xlink="http://www.w3.org/1999/xlink" x="0px" y="0px"
	 width="527px" height="512px" viewBox="0 0 527 512" enable-background="new 0 0 527 512" xml:space="preserve">
<ellipse fill="#F1F1F1" cx="271.743" cy="464.34" rx="214.212" ry="43.681"/>
<g>
	<path fill="#FFB83C" d="M460.726,20.678c0-0.712,7.598-16.62,7.598-16.62s5.936,10.922,5.936,17.332l6.411,0.475
		c0,0,8.547-9.972,12.584-11.397c0,0-0.475,15.195-1.425,19.232l7.123-1.899l12.346-2.137l-4.986,10.447l5.936,8.073l10.209,1.187
		l-10.209,10.922l3.324,7.123l8.31,5.698L511.773,72.2l-2.374,9.497c0,0,5.223,5.936,4.986,8.31l-11.871-1.662l-5.936,6.173
		c0,0,2.612,5.223,2.137,11.871c0,0-12.109-7.36-12.821-8.785l-4.986,4.036c0,0,0,9.972-3.087,12.821c0,0-8.31-9.972-8.785-16.145
		c0,0-12.584,14.958-14.008,15.67c0,0-3.561-11.159-1.425-16.62l-19.469,7.36l4.274-13.296l-6.885-6.411l-11.634,1.662l7.123-9.26
		l-2.612-9.497c0,0-3.799,3.087-11.397-3.324l10.922-7.123l2.612-6.885l-3.087-1.187l-7.598-8.073l12.584,0.712l4.036-7.123
		l-4.986-12.584c0,0,14.721,2.137,17.095,5.936l0.95-4.274l0.475-15.195c0,0,9.735,8.785,10.209,12.821L460.726,20.678z"/>
	<ellipse fill="#FFDE00" cx="469.274" cy="61.278" rx="47.723" ry="42.5"/>
	<circle fill="#5D4C3B" cx="440.426" cy="70.894" r="2.73"/>
	<circle fill="#5D4C3B" cx="501.683" cy="65.67" r="2.73"/>
	<path fill="#EEF3FA" d="M442.919,83.121l59.595-5.461c0,0,3.087,18.519-27.067,19.944
		C475.447,97.604,444.581,100.928,442.919,83.121z"/>
</g>
<path fill="#EFF8F8" d="M317.193,76.626c0,0,3.251-19.979,23.31-21.005c6.332-0.324,13.833-0.256,23.31,9.99
	c0,0,11.271-6.148,18.7,1.793c0,0,11.881-14.725,29.458-7.172c5.063,2.176,12.296,7.172,13.833,17.163
	c0,0,29.458-3.586,24.847,21.773c0,0,25.737,2.048,27.921,11.271c4.979,21.024-73.261,16.906-85.813,10.246
	c0,0-27.921,20.493-55.586,1.281c0,0-21.826,16.046-37.911-6.148C292.938,107.094,287.991,85.848,317.193,76.626z"/>
<g>
	<defs>
		<path id="SVGID_1_" d="M317.193,76.626c0,0,3.251-19.979,23.31-21.005c6.332-0.324,13.833-0.256,23.31,9.99
			c0,0,11.271-6.148,18.7,1.793c0,0,11.881-14.725,29.458-7.172c5.063,2.176,12.296,7.172,13.833,17.163
			c0,0,29.458-3.586,24.847,21.773c0,0,25.737,2.048,27.921,11.271c4.979,21.024-73.261,16.906-85.813,10.246
			c0,0-27.921,20.493-55.586,1.281c0,0-21.826,16.046-37.911-6.148C292.938,107.094,287.991,85.848,317.193,76.626z"/>
	</defs>
	<clipPath id="SVGID_2_">
		<use xlink:href="#SVGID_1_"  overflow="visible"/>
	</clipPath>
	<path clip-path="url(#SVGID_2_)" fill="#FFFFFF" d="M309.252,73.553c0,0-14.089,33.301,12.552,41.242c0,0,14.345,4.099,26.64-5.635
		c0,0,18.443,22.798,53.537-0.256c0,0,26.64,16.138,80.434,0.256c0,0-1.793-7.941-27.921-13.32c0,0,0.512-26.897-27.409-21.005
		c0,0-9.99-32.532-44.828-11.271c0,0-9.478-5.892-18.956-0.512c0,0-24.335-24.847-48.414,6.66L309.252,73.553z"/>
</g>
<g>
	<g>
		<path fill="#FFFEFB" d="M366.181,443.875c0,16.022-12.988,29.01-29.01,29.01H180.343c-16.022,0-29.01-12.988-29.01-29.01V109.878
			c0-16.022,12.988-29.01,29.01-29.01h156.828c16.022,0,29.01,12.988,29.01,29.01V443.875z"/>
		<path fill="#B3E2F5" d="M337.171,475.057H180.343c-17.194,0-31.182-13.988-31.182-31.182V109.878
			c0-17.194,13.988-31.182,31.182-31.182h156.828c17.194,0,31.182,13.988,31.182,31.182v333.997
			C368.353,461.069,354.365,475.057,337.171,475.057z M180.343,83.041c-14.798,0-26.838,12.039-26.838,26.838v333.997
			c0,14.798,12.039,26.838,26.838,26.838h156.828c14.798,0,26.838-12.039,26.838-26.838V109.878
			c0-14.798-12.039-26.838-26.838-26.838H180.343z"/>
	</g>
	<g>
		<rect x="172.273" y="125.979" fill="#FFFEFB" width="171.935" height="299.476"/>
		<path fill="#B3E2F5" d="M344.932,426.179H171.55V125.255h173.382V426.179z M172.998,424.731h170.486V126.703H172.998V424.731z"/>
	</g>
	<circle fill="#B3E2F5" cx="258.8" cy="448.281" r="15.711"/>
	<g>
		<circle fill="#B3E2F5" cx="234.016" cy="103.666" r="3.181"/>
		<path fill="#B3E2F5" d="M282.171,102.781c0,1.04-0.843,1.883-1.883,1.883h-27.17c-1.04,0-1.883-0.843-1.883-1.883l0,0
			c0-1.04,0.843-1.883,1.883-1.883h27.17C281.328,100.898,282.171,101.741,282.171,102.781L282.171,102.781z"/>
	</g>
	<path fill="#B3E2F5" d="M369.013,158.994c0.8,0,1.448,0.648,1.448,1.448v28.039c0,0.8-0.648,1.448-1.448,1.448h-0.87
		c-0.8,0-1.448-0.648-1.448-1.448v-28.039c0-0.8,0.648-1.448,1.448-1.448H369.013z"/>
</g>
<g>
	<g>
		<ellipse fill="#FFAF14" cx="365.408" cy="473.922" rx="36.73" ry="12.684"/>
		<rect x="328.678" y="466.347" fill="#FFAF14" width="73.459" height="7.927"/>
		<ellipse fill="#FFE35A" cx="365.408" cy="466.347" rx="36.73" ry="12.684"/>
	</g>
	<g>
		<ellipse fill="#FFAF14" cx="365.408" cy="463.352" rx="36.73" ry="12.684"/>
		<rect x="328.678" y="455.777" fill="#FFAF14" width="73.459" height="7.927"/>
		<ellipse fill="#FFE35A" cx="365.408" cy="455.777" rx="36.73" ry="12.684"/>
	</g>
	<g>
		<ellipse fill="#FFAF14" cx="365.408" cy="452.959" rx="36.73" ry="12.684"/>
		<rect x="328.678" y="445.384" fill="#FFAF14" width="73.459" height="7.927"/>
		<ellipse fill="#FFE35A" cx="365.408" cy="445.384" rx="36.73" ry="12.684"/>
	</g>
	<g>
		<ellipse fill="#FFAF14" cx="360.651" cy="443.446" rx="36.73" ry="12.684"/>
		<rect x="323.922" y="435.871" fill="#FFAF14" width="73.459" height="7.927"/>
		<ellipse fill="#FFE35A" cx="360.651" cy="435.871" rx="36.73" ry="12.684"/>
	</g>
	<g>
		<ellipse fill="#FFAF14" cx="366.465" cy="433.581" rx="36.73" ry="12.684"/>
		<rect x="329.735" y="426.006" fill="#FFAF14" width="73.459" height="7.927"/>
		<ellipse fill="#FFE35A" cx="366.465" cy="426.006" rx="36.73" ry="12.684"/>
	</g>
	<g>
		<ellipse fill="#FFAF14" cx="366.465" cy="423.716" rx="36.73" ry="12.684"/>
		<rect x="329.735" y="416.141" fill="#FFAF14" width="73.459" height="7.927"/>
		<ellipse fill="#FFE35A" cx="366.465" cy="416.141" rx="36.73" ry="12.684"/>
	</g>
	<g>
		<g>
			<ellipse fill="#FFAF14" cx="414.475" cy="483.793" rx="18.856" ry="6.511"/>
			<rect x="395.619" y="479.905" fill="#FFAF14" width="37.712" height="4.07"/>
			<ellipse fill="#FFE35A" cx="414.475" cy="479.905" rx="18.856" ry="6.511"/>
		</g>
		<g>
			<ellipse fill="#FFAF14" cx="414.475" cy="478.509" rx="18.856" ry="6.511"/>
			<rect x="395.619" y="474.62" fill="#FFAF14" width="37.712" height="4.07"/>
			<ellipse fill="#FFE35A" cx="414.475" cy="474.62" rx="18.856" ry="6.511"/>
		</g>
		<g>
			<ellipse fill="#FFAF14" cx="414.475" cy="472.872" rx="18.856" ry="6.511"/>
			<rect x="395.619" y="468.983" fill="#FFAF14" width="37.712" height="4.07"/>
			<ellipse fill="#FFE35A" cx="414.475" cy="468.983" rx="18.856" ry="6.511"/>
		</g>
		<g>
			<ellipse fill="#FFAF14" cx="413.418" cy="466.882" rx="18.856" ry="6.511"/>
			<rect x="394.562" y="462.993" fill="#FFAF14" width="37.712" height="4.07"/>
			<ellipse fill="#FFE35A" cx="413.418" cy="462.993" rx="18.856" ry="6.511"/>
		</g>
		<g>
			<ellipse fill="#FFAF14" cx="416.413" cy="462.126" rx="18.856" ry="6.511"/>
			<rect x="397.557" y="458.237" fill="#FFAF14" width="37.712" height="4.07"/>
			<ellipse fill="#FFE35A" cx="416.413" cy="458.237" rx="18.856" ry="6.511"/>
		</g>
	</g>
</g>
<rect x="173.022" y="163.192" fill="#F1F1F1" width="170.175" height="225.361"/>
<g>
	<path fill="#FFFFFF" d="M337.509,373.55c0,2.209-1.791,4-4,4H183.522c-2.209,0-4-1.791-4-4V237.355c0-2.209,1.791-4,4-4h149.988
		c2.209,0,4,1.791,4,4V373.55z"/>
	<polygon opacity="0.8" fill="#FFD9D9" points="194.855,333.355 220.219,323.355 231.995,332.022 251.018,326.688 262.794,332.022 
		285.44,319.355 295.405,335.355 313.522,324.022 313.522,360.688 195.761,360.688 	"/>
	<path fill="#D9F1FF" d="M337.509,239.883c0,2.209-1.791,4-4,4H183.522c-2.209,0-4-1.791-4-4v-59.195c0-2.209,1.791-4,4-4h149.988
		c2.209,0,4,1.791,4,4V239.883z"/>
	<path fill="#FFFFFF" d="M253.522,195.355c0,2.209-1.791,4-4,4h-60c-2.209,0-4-1.791-4-4v-3.333c0-2.209,1.791-4,4-4h60
		c2.209,0,4,1.791,4,4V195.355z"/>
	<path fill="#FFFFFF" d="M222.188,224.022c0,2.209-1.791,4-4,4h-28.667c-2.209,0-4-1.791-4-4v-12c0-2.209,1.791-4,4-4h28.667
		c2.209,0,4,1.791,4,4V224.022z"/>
	<path fill="#FFFFFF" d="M274.522,224.022c0,2.209-1.791,4-4,4h-28.667c-2.209,0-4-1.791-4-4v-12c0-2.209,1.791-4,4-4h28.667
		c2.209,0,4,1.791,4,4V224.022z"/>
	<path fill="#FFFFFF" d="M326.855,224.022c0,2.209-1.791,4-4,4h-28.667c-2.209,0-4-1.791-4-4v-12c0-2.209,1.791-4,4-4h28.667
		c2.209,0,4,1.791,4,4V224.022z"/>
	<path fill="#FFD9D9" d="M222.188,266.105c0,2.209-1.791,4-4,4h-28.667c-2.209,0-4-1.791-4-4v-12c0-2.209,1.791-4,4-4h28.667
		c2.209,0,4,1.791,4,4V266.105z"/>
	<g>
		<path fill="#FFD9D9" d="M274.188,255.605c0,1.289-1.045,2.333-2.333,2.333h-42.667c-1.289,0-2.333-1.045-2.333-2.333l0,0
			c0-1.289,1.045-2.333,2.333-2.333h42.667C273.144,253.272,274.188,254.316,274.188,255.605L274.188,255.605z"/>
		<path fill="#FFD9D9" d="M274.188,264.605c0,1.289-1.045,2.333-2.333,2.333h-42.667c-1.289,0-2.333-1.045-2.333-2.333l0,0
			c0-1.289,1.045-2.333,2.333-2.333h42.667C273.144,262.272,274.188,263.316,274.188,264.605L274.188,264.605z"/>
	</g>
	<g>
		<g>
			<path fill="#E3E3E3" d="M329.522,255.605c0,1.289-1.045,2.333-2.333,2.333h-42.667c-1.289,0-2.333-1.045-2.333-2.333l0,0
				c0-1.289,1.045-2.333,2.333-2.333h42.667C328.477,253.272,329.522,254.316,329.522,255.605L329.522,255.605z"/>
			<path fill="#E3E3E3" d="M329.522,264.605c0,1.289-1.045,2.333-2.333,2.333h-42.667c-1.289,0-2.333-1.045-2.333-2.333l0,0
				c0-1.289,1.045-2.333,2.333-2.333h42.667C328.477,262.272,329.522,263.316,329.522,264.605L329.522,264.605z"/>
		</g>
	</g>
	<path fill="#E3E3E3" d="M280.188,282.688c0,1.243-0.895,2.25-2,2.25h-88c-1.105,0-2-1.007-2-2.25l0,0c0-1.243,0.895-2.25,2-2.25h88
		C279.293,280.438,280.188,281.446,280.188,282.688L280.188,282.688z"/>
	<path fill="#CEF1A5" d="M277.522,301.688c0,1.657-1.343,3-3,3h-80c-1.657,0-3-1.343-3-3l0,0c0-1.657,1.343-3,3-3h80
		C276.179,298.688,277.522,300.031,277.522,301.688L277.522,301.688z"/>
	<path fill="#FFD9D9" d="M327.522,301.688c0,1.657-1.343,3-3,3h-80c-1.657,0-3-1.343-3-3l0,0c0-1.657,1.343-3,3-3h80
		C326.179,298.688,327.522,300.031,327.522,301.688L327.522,301.688z"/>
	<polyline fill="none" stroke="#ED5F5F" stroke-miterlimit="10" points="194.855,333.355 220.219,323.355 231.995,332.022 
		251.018,326.688 262.794,332.022 285.44,319.355 295.405,335.355 313.522,324.022 	"/>
	<path fill="#FFFFFF" d="M312.487,191.366c0.364-0.534,0.68-1.098,1.091-1.582c1.145-1.349,2.885-1.828,4.424-1.275
		c0.619,0.223,1.169,0.567,1.572,1.081c1.349,1.719,1.672,3.632,0.937,5.689c-0.309,0.866-0.949,1.517-1.676,2.058
		c-0.641,0.477-1.307,0.921-1.98,1.351c-1.427,0.913-2.691,2.003-3.723,3.35c-0.22,0.287-0.399,0.605-0.567,0.863
		c-0.376-0.504-0.746-1.06-1.176-1.563c-0.796-0.932-1.755-1.679-2.788-2.338c-0.849-0.542-1.704-1.082-2.502-1.693
		c-0.965-0.739-1.657-1.701-1.838-2.935c-0.223-1.526,0.006-2.99,0.851-4.305c1.395-2.17,4.126-2.477,6.003-0.702
		C311.725,189.942,312.164,190.635,312.487,191.366z"/>
</g>
<g>
	<path fill="#F5F5F5" d="M212.188,405.688c0,2.761-2.239,5-5,5h-26.667c-2.761,0-5-2.239-5-5l0,0c0-2.761,2.239-5,5-5h26.667
		C209.95,400.688,212.188,402.927,212.188,405.688L212.188,405.688z"/>
	<path fill="#FFD9D9" d="M256.188,405.688c0,2.761-2.239,5-5,5h-26.667c-2.761,0-5-2.239-5-5l0,0c0-2.761,2.239-5,5-5h26.667
		C253.95,400.688,256.188,402.927,256.188,405.688L256.188,405.688z"/>
	<path fill="#F5F5F5" d="M297.522,405.688c0,2.761-2.239,5-5,5h-26.667c-2.761,0-5-2.239-5-5l0,0c0-2.761,2.239-5,5-5h26.667
		C295.283,400.688,297.522,402.927,297.522,405.688L297.522,405.688z"/>
	<path fill="#F5F5F5" d="M341.522,405.688c0,2.761-2.239,5-5,5h-26.667c-2.761,0-5-2.239-5-5l0,0c0-2.761,2.239-5,5-5h26.667
		C339.283,400.688,341.522,402.927,341.522,405.688L341.522,405.688z"/>
</g>
<path fill="#F1F1F1" d="M294.855,145.355c0,3.314-2.686,6-6,6h-60.667c-3.314,0-6-2.686-6-6v-2c0-3.314,2.686-6,6-6h60.667
	c3.314,0,6,2.686,6,6V145.355z"/>
<g>
	<path fill="#94CC1E" d="M516.19,174.394h-47.333c-3.314,0-6,2.686-6,6v43.333c0,3.314,2.686,6,6,6h14.121l-2.121,11.333
		l18.667-11.333h16.667c3.314,0,6-2.686,6-6v-43.333C522.19,177.08,519.504,174.394,516.19,174.394z"/>
	<g>
		<path fill="#FFFFFF" d="M477.312,193.281l-7.152,5.16l-0.96-1.32l7.152-5.161L477.312,193.281z M473.879,213.875l-0.048-11.929
			l-3.672,2.616l-0.96-1.32l6.264-4.513l0.048,15.146H473.879z M477.576,199.09h13.609v1.632h-2.304v10.201
			c0,1.656-1.368,3.024-3.024,3.024h-3.168v-1.632h3.168c0.768,0,1.368-0.624,1.368-1.392v-10.201h-9.649V199.09z M478.704,192.969
			h12.097v1.632h-12.097V192.969z"/>
		<path fill="#FFFFFF" d="M494.855,194.649v16.706h-1.632v-16.706H494.855z M498.551,191.985v7.465h2.544v1.632h-2.544v12.937
			h-1.632v-22.034H498.551z M509.017,191.985v1.488h5.904v1.656h-5.904v1.608h5.856v1.632h-5.856v1.8h6.145v1.632H501.24v-1.632
			h6.121v-1.8h-5.833v-1.632h5.833v-1.608h-5.881v-1.656h5.881v-1.488H509.017z M501.744,213.947v-8.281
			c0-1.416,1.128-2.568,2.568-2.568h7.752c1.417,0,2.592,1.152,2.592,2.568v5.761c0,1.416-1.176,2.544-2.592,2.544h-1.176v-1.632
			h1.176c0.552,0,0.96-0.408,0.96-0.912v-0.072h-9.649v2.592H501.744z M503.376,206.41h9.649v-0.744c0-0.528-0.408-0.936-0.96-0.936
			h-7.752c-0.528,0-0.936,0.408-0.936,0.936V206.41z M503.376,209.723h9.649v-1.68h-9.649V209.723z"/>
	</g>
</g>
<g>
	<path fill="#3FB7F6" d="M10.449,169.299h47.333c3.314,0,6,2.686,6,6v43.333c0,3.314-2.686,6-6,6H43.661l2.121,11.333
		l-18.667-11.333H10.449c-3.314,0-6-2.686-6-6v-43.333C4.449,171.985,7.135,169.299,10.449,169.299z"/>
	<g>
		<path fill="#FFFFFF" d="M31.768,190.634H15.23c-0.768,0-1.344,0.647-1.392,1.439l-1.08,16.754l-1.632-0.072l1.08-16.777
			c0.096-1.608,1.392-2.977,3.024-2.977h6.505v-2.136h1.632v2.136h8.401V190.634z M24.616,192.218v4.272h6.888v1.632h-6.888v8.761
			h7.8v1.632H15.183v-1.632h7.801v-8.761h-6.889v-1.632h6.889v-4.272H24.616z"/>
		<path fill="#FFFFFF" d="M56.248,198.195l-5.28,3.864l5.424,5.137l-1.104,1.176l-7.849-7.44l0.024,4.608
			c0,2.424-1.728,3.864-3.96,3.888v-1.632c1.296-0.024,2.328-0.864,2.328-2.256v-1.44c-2.424,1.848-6.457,3.456-10.345,4.177
			l-0.312-1.608c4.344-0.792,8.857-2.736,10.633-4.801v-1.704c0-0.24-0.024-0.479-0.096-0.72c-2.16,2.304-6.193,4.512-10.201,5.353
			l-0.36-1.584c3.888-0.816,7.777-3.024,9.577-5.137c-0.456-0.36-1.056-0.601-1.872-0.72c-1.992,1.536-4.68,2.735-7.321,3.384
			l-0.384-1.584c3-0.744,6.024-2.208,7.825-4.057h-6.841v-1.632h19.442v1.632H45.087c-0.216,0.313-0.48,0.624-0.744,0.937
			c1.344,0.456,2.208,1.271,2.664,2.256l2.76,2.616l5.521-4.032L56.248,198.195z M54.712,192.554v-1.344
			c0-0.528-0.432-0.937-0.96-0.937H37.935c-0.528,0-0.936,0.408-0.936,0.937v1.344h-1.632v-1.344c0-1.417,1.152-2.568,2.568-2.568
			h7.104v-1.633h1.632v1.633h7.081c1.416,0,2.592,1.151,2.592,2.568v1.344H54.712z"/>
	</g>
</g>
<g>
	<path fill="#A145E2" d="M37.726,338.448H95c4.01,0,7.26,3.25,7.26,7.26v52.433c0,4.01-3.25,7.26-7.26,7.26H77.913l2.567,13.714
		l-22.587-13.714H37.726c-4.01,0-7.26-3.25-7.26-7.26v-52.433C30.466,341.698,33.717,338.448,37.726,338.448z"/>
	<g>
		<path fill="#FFFFFF" d="M44.152,374.051l-0.523,1.452h8.364v1.975h-1.568c-0.465,2.207-1.598,3.95-3.253,5.314l4.124,1.714
			l-0.726,1.8l-5.372-2.236c-1.83,1.017-4.095,1.714-6.622,2.178l-0.349-1.917c1.655-0.32,3.166-0.697,4.501-1.249l-0.435-0.203
			c-1.423-0.581-2.062-1.655-2.062-3.02c0-0.581,0.116-1.104,0.32-1.684l0.232-0.697h-2.527v-1.975h3.253l0.755-2.091
			L44.152,374.051z M45.953,359.792v5.576h5.75v1.975h-5.75v6.244h-1.975v-6.244h-5.722v-1.975h5.722v-5.576H45.953z
			 M38.576,372.686l1.742-5.17l1.888,0.639l-1.742,5.17L38.576,372.686z M40.435,360.111l1.742,4.125l-1.83,0.755l-1.742-4.124
			L40.435,360.111z M43.048,381.05l1.946,0.842c1.655-1.104,2.847-2.556,3.369-4.415h-5.46l-0.493,1.336
			c-0.145,0.378-0.204,0.755-0.204,1.046C42.206,380.382,42.468,380.818,43.048,381.05z M49.496,373.326l-1.743-5.17l1.859-0.639
			l1.743,5.17L49.496,373.326z M51.325,360.866l-1.713,4.124l-1.83-0.755l1.743-4.125L51.325,360.866z M54.898,367.546l3.775,6.854
			c1.017-2.701,1.917-5.895,2.643-9.729h-8.277l0.755-4.85l1.975,0.32l-0.378,2.555h8.975v1.975h-1.075
			c-0.9,4.821-2.062,8.713-3.427,11.936l4.792,8.655l-1.684,0.987l-4.124-7.435c-1.539,3.079-3.282,5.431-5.141,7.464l-1.423-1.336
			c1.975-2.12,3.833-4.734,5.402-8.219l-4.502-8.19L54.898,367.546z"/>
		<path fill="#FFFFFF" d="M68.11,384.361h1.51c0.9,0,1.597-0.726,1.597-1.684v-5.576l-3.078,1.742l-0.958-1.713l4.036-2.294v-9.149
			h-3.601v-1.975h3.601v-3.834h1.975v3.834h2.236v1.975h-2.236v8.016l2.353-1.336l0.958,1.714l-3.311,1.888v6.709
			c0,2.004-1.598,3.66-3.572,3.66h-1.51V384.361z M76.212,386.337l0.755-23.089c0.087-1.684,1.452-3.107,3.137-3.107h10.543
			c1.684,0,3.108,1.365,3.108,3.136v1.946c0,1.713-1.423,3.108-3.108,3.108H78.797l-0.61,18.064L76.212,386.337z M78.855,366.355
			h11.792c0.639,0,1.133-0.494,1.133-1.133v-1.946c0-0.668-0.494-1.162-1.133-1.162H80.104c-0.639,0-1.133,0.523-1.133,1.162
			L78.855,366.355z M87.945,368.94v3.079h5.809v1.975h-5.809v2.991h2.701c1.423,0,2.614,1.191,2.614,2.614v4.182
			c0,1.423-1.191,2.585-2.614,2.585h-7.406c-1.423,0-2.614-1.162-2.614-2.585v-4.182c0-1.423,1.19-2.614,2.614-2.614h2.73v-2.991
			h-5.838v-1.975h5.838v-3.079H87.945z M91.285,379.598c0-0.349-0.29-0.61-0.639-0.61h-7.406c-0.349,0-0.61,0.261-0.61,0.61v4.182
			c0,0.349,0.261,0.61,0.61,0.61h7.406c0.349,0,0.639-0.261,0.639-0.61V379.598z"/>
	</g>
</g>
<g>
	<path fill="#FFA800" d="M474.463,334.883h-54.779c-3.835,0-6.944,3.109-6.944,6.944v50.15c0,3.835,3.109,6.944,6.944,6.944h16.342
		l-2.455,13.116l21.603-13.116h19.288c3.835,0,6.944-3.109,6.944-6.944v-50.15C481.407,337.992,478.298,334.883,474.463,334.883z"/>
	<g>
		<path fill="#FFFFFF" d="M424.912,362.884l-2.944,4.916l-1.638-0.973l2.943-4.915L424.912,362.884z M420.857,378.853
			c9.553-1.527,10.748-3.888,10.748-7.526h1.888c0,1.444-0.139,2.694-0.639,3.833l12.247,3.749l-0.583,1.805l-12.719-3.943
			c-1.639,1.722-4.749,3.027-10.636,3.972L420.857,378.853z M441.519,376.02v-4.415c0-0.889-0.722-1.611-1.611-1.611h-14.024
			c-0.889,0-1.583,0.723-1.583,1.611v4.415h-1.889v-4.415c0-1.917,1.527-3.5,3.472-3.5h14.024c1.917,0,3.5,1.583,3.5,3.5v4.415
			H441.519z M424.718,356.053v3.999h-1.889v-3.999H424.718z M431.022,356.248l-0.666,1.443h14.08l-1.444,4.443l-1.777-0.583
			l0.667-1.972h-6.887c-0.111,0.444-0.25,0.861-0.389,1.25l10.664,5.804l-0.917,1.611l-10.525-5.693
			c-1.583,2.777-4.027,4.36-6.887,5.055l-0.444-1.861c2.972-0.722,5.415-2.582,6.526-6.165h-5.638l1.944-4.138L431.022,356.248z"/>
		<path fill="#FFFFFF" d="M471.266,366.217l-2.555-6.888c-0.306-0.833-0.972-1.555-1.75-1.555h-12.775
			c-0.805,0-1.472,0.722-1.777,1.555l-2.555,6.888l-1.777-0.667l2.527-6.887c0.556-1.5,1.833-2.777,3.583-2.777h12.775
			c1.694,0,2.999,1.277,3.555,2.777l2.527,6.887L471.266,366.217z M471.266,370.355h-9.748v8.47h3.749l2.444-6.276l1.777,0.667
			l-2.166,5.609h5.276v1.889h-24.077v-1.889h5.304l-2.166-5.609l1.722-0.667l2.444,6.276h3.805v-8.47h-9.775v-1.889h9.775v-4.165
			h-7.471v-1.917h16.802v1.917h-7.443v4.165h9.748V370.355z"/>
	</g>
</g>
</svg>
