<?xml version="1.0" encoding="utf-8"?>
<!-- Generator: Adobe Illustrator 17.0.0, SVG Export Plug-In . SVG Version: 6.00 Build 0)  -->
<!DOCTYPE svg PUBLIC "-//W3C//DTD SVG 1.1//EN" "http://www.w3.org/Graphics/SVG/1.1/DTD/svg11.dtd">
<svg version="1.1" id="图层_1" xmlns="http://www.w3.org/2000/svg" xmlns:xlink="http://www.w3.org/1999/xlink" x="0px" y="0px"
	 width="1856px" height="400px" viewBox="0 0 1856 400" enable-background="new 0 0 1856 400" xml:space="preserve">
<g>
	<g>
		<path fill="#EF6945" d="M1329.407,189.104c0,9.837,7.967,17.841,17.757,17.841h107.069c14.772,0,26.79-12.018,26.79-26.79
			c0-14.772-12.018-26.79-26.79-26.79c-2.868,0-5.697,0.461-8.428,1.371c-6.064-12.472-18.716-20.444-32.667-20.444
			c-15.293,0-28.766,9.436-34.042,23.651c-2.047-0.538-4.134-0.81-6.227-0.81c-9.77,0-18.442,5.633-22.489,14.473
			c-1.135-0.234-2.18-0.344-3.216-0.344C1337.374,171.263,1329.407,179.267,1329.407,189.104z"/>
		<path fill="#FF7D5A" d="M1332.826,189.104c0-7.952,6.431-14.422,14.338-14.422c1.149,0,2.347,0.182,3.77,0.574l1.489,0.411
			l0.558-1.439c3.232-8.308,11.039-13.675,19.888-13.675c2.281,0,4.555,0.376,6.765,1.119l1.643,0.551l0.531-1.651
			c4.378-13.672,16.969-22.86,31.331-22.86c13.13,0,24.983,7.792,30.202,19.853l0.661,1.526l1.543-0.618
			c2.798-1.12,5.72-1.688,8.688-1.688c12.886,0,23.37,10.483,23.37,23.371c0,12.887-10.485,23.371-23.37,23.371h-107.069
			C1339.257,203.526,1332.826,197.056,1332.826,189.104z"/>
		
			<rect x="1403.121" y="174.325" transform="matrix(0.7071 -0.7071 0.7071 0.7071 291.5619 1055.962)" fill="#EF6945" width="34.638" height="3.419"/>
		
			<rect x="1404.327" y="164.552" transform="matrix(0.707 -0.7072 0.7072 0.707 295.3654 1045.4838)" fill="#EF6945" width="10.324" height="3.419"/>
	</g>
	<g>
		<polyline fill="#FF7647" stroke="#EF6945" stroke-width="2" stroke-miterlimit="10" points="537.743,65.338 637.498,23.209 
			787.566,56.356 787.566,74.635 537.897,74.752 537.897,65.642 		"/>
		<circle fill="#FF9971" cx="919.094" cy="201.387" r="102.253"/>
		<polygon fill="#FF7D5A" stroke="#EF6945" stroke-width="2" stroke-linejoin="round" stroke-miterlimit="10" points="
			632.509,61.874 637.538,23.477 642.567,61.874 		"/>
		<path fill="#FF7D5A" stroke="#EF6945" stroke-width="2" stroke-miterlimit="10" d="M849.638,172.58h-39.765
			c-4.786,0-8.68-3.893-8.68-8.68c0-4.786,3.894-8.68,8.68-8.68c1.102,0,2.188,0.211,3.227,0.627l0.573,0.229l0.246-0.567
			c1.938-4.479,6.341-7.373,11.217-7.373c5.334,0,10.01,3.412,11.636,8.49l0.197,0.613l0.61-0.205
			c0.821-0.276,1.666-0.415,2.513-0.415c3.286,0,6.186,1.993,7.386,5.079l0.207,0.534l0.553-0.153
			c0.528-0.146,0.974-0.213,1.4-0.213c2.937,0,5.325,2.403,5.325,5.356S852.575,172.58,849.638,172.58z"/>
		
			<rect x="632.422" y="64.934" fill="#FF7D5A" stroke="#EF6945" stroke-width="2" stroke-miterlimit="10" width="9.76" height="20.212"/>
		
			<rect x="535.595" y="74.642" fill="#FF7D5A" stroke="#EF6945" stroke-width="2" stroke-miterlimit="10" width="98.595" height="4.915"/>
		
			<rect x="533.262" y="74.642" fill="#FF7D5A" stroke="#EF6945" stroke-width="2" stroke-miterlimit="10" width="19.929" height="35.127"/>
		
			<rect x="558.929" y="74.642" fill="#FF7D5A" stroke="#EF6945" stroke-width="2" stroke-miterlimit="10" width="19.929" height="35.127"/>
		<polyline fill="#FF7D5A" stroke="#EF6945" stroke-width="2" stroke-linecap="round" stroke-miterlimit="10" points="
			684.348,55.519 684.348,74.642 658.29,74.642 684.379,55.519 		"/>
		<rect x="538.226" y="65.642" fill="#FF7D5A" stroke="#EF6945" stroke-width="2" stroke-miterlimit="10" width="10" height="9"/>
		<rect x="563.893" y="65.642" fill="#FF7D5A" stroke="#EF6945" stroke-width="2" stroke-miterlimit="10" width="10" height="9"/>
		
			<rect x="626.484" y="61.261" fill="#FF7D5A" stroke="#EF6945" stroke-width="2" stroke-miterlimit="10" width="21.636" height="3.789"/>
		<g>
			<g>
				
					<rect x="632.422" y="327.884" fill="#FF7D5A" stroke="#EF6945" stroke-width="2" stroke-miterlimit="10" width="9.76" height="20.212"/>
				
					<rect x="632.422" y="102.934" fill="#FF7D5A" stroke="#EF6945" stroke-width="2" stroke-miterlimit="10" width="9.76" height="20.212"/>
				
					<rect x="622.797" y="341.8" fill="#FF7D5A" stroke="#EF6945" stroke-width="2" stroke-miterlimit="10" width="29.01" height="6.296"/>
				<g>
					
						<rect x="598.964" y="348.209" fill="#FF7D5A" stroke="#EF6945" stroke-width="2" stroke-miterlimit="10" width="76.677" height="10.296"/>
					<g>
						
							<rect x="616.788" y="358.73" fill="#FF7D5A" stroke="#EF6945" stroke-width="2" stroke-miterlimit="10" width="39.199" height="6.296"/>
						<circle fill="#FF7D5A" stroke="#EF6945" stroke-width="2" stroke-miterlimit="10" cx="616.931" cy="365.432" r="6.877"/>
						<circle fill="#FF7D5A" stroke="#EF6945" stroke-width="2" stroke-miterlimit="10" cx="657.674" cy="365.432" r="6.877"/>
					</g>
				</g>
				<g>
					<g>
						
							<rect x="627.023" y="311.842" fill="#FF7D5A" stroke="#EF6945" stroke-width="2" stroke-miterlimit="10" width="20" height="16"/>
						
							<line fill="none" stroke="#EF6945" stroke-width="2" stroke-miterlimit="10" x1="627.483" y1="312.393" x2="646.727" y2="327.487"/>
						
							<line fill="none" stroke="#EF6945" stroke-width="2" stroke-miterlimit="10" x1="646.797" y1="311.868" x2="627.343" y2="327.417"/>
					</g>
					<circle fill="#EF6945" cx="627.077" cy="311.862" r="2.969"/>
					<circle fill="#EF6945" cx="646.869" cy="311.862" r="2.969"/>
				</g>
				<g>
					<g>
						
							<rect x="627.023" y="279.83" fill="#FF7D5A" stroke="#EF6945" stroke-width="2" stroke-miterlimit="10" width="20" height="16"/>
						
							<line fill="none" stroke="#EF6945" stroke-width="2" stroke-miterlimit="10" x1="627.483" y1="280.381" x2="646.727" y2="295.475"/>
						
							<line fill="none" stroke="#EF6945" stroke-width="2" stroke-miterlimit="10" x1="646.797" y1="279.856" x2="627.343" y2="295.405"/>
					</g>
					<circle fill="#EF6945" cx="627.077" cy="279.85" r="2.969"/>
					<circle fill="#EF6945" cx="646.869" cy="279.85" r="2.969"/>
				</g>
				<g>
					<g>
						
							<rect x="627.023" y="295.936" fill="#FF7D5A" stroke="#EF6945" stroke-width="2" stroke-miterlimit="10" width="20" height="16"/>
						
							<line fill="none" stroke="#EF6945" stroke-width="2" stroke-miterlimit="10" x1="627.483" y1="296.488" x2="646.727" y2="311.581"/>
						
							<line fill="none" stroke="#EF6945" stroke-width="2" stroke-miterlimit="10" x1="646.797" y1="295.963" x2="627.343" y2="311.511"/>
					</g>
					<circle fill="#EF6945" cx="627.077" cy="295.956" r="2.969"/>
					<circle fill="#EF6945" cx="646.869" cy="295.956" r="2.969"/>
				</g>
				<g>
					<g>
						
							<rect x="627.023" y="263.83" fill="#FF7D5A" stroke="#EF6945" stroke-width="2" stroke-miterlimit="10" width="20" height="16"/>
						
							<line fill="none" stroke="#EF6945" stroke-width="2" stroke-miterlimit="10" x1="627.483" y1="264.381" x2="646.727" y2="279.475"/>
						
							<line fill="none" stroke="#EF6945" stroke-width="2" stroke-miterlimit="10" x1="646.797" y1="263.856" x2="627.343" y2="279.405"/>
					</g>
					<circle fill="#EF6945" cx="627.077" cy="263.85" r="2.969"/>
					<circle fill="#EF6945" cx="646.869" cy="263.85" r="2.969"/>
				</g>
				<circle fill="#EF6945" cx="627.077" cy="327.82" r="2.969"/>
				<circle fill="#EF6945" cx="646.869" cy="327.82" r="2.969"/>
				<g>
					<g>
						<g>
							
								<rect x="627.023" y="247.854" fill="#FF7D5A" stroke="#EF6945" stroke-width="2" stroke-miterlimit="10" width="20" height="16"/>
							
								<line fill="none" stroke="#EF6945" stroke-width="2" stroke-miterlimit="10" x1="627.483" y1="248.406" x2="646.727" y2="263.499"/>
							
								<line fill="none" stroke="#EF6945" stroke-width="2" stroke-miterlimit="10" x1="646.797" y1="247.881" x2="627.343" y2="263.429"/>
						</g>
						<circle fill="#EF6945" cx="627.077" cy="247.874" r="2.969"/>
						<circle fill="#EF6945" cx="646.869" cy="247.874" r="2.969"/>
					</g>
					<g>
						<g>
							
								<rect x="627.023" y="231.854" fill="#FF7D5A" stroke="#EF6945" stroke-width="2" stroke-miterlimit="10" width="20" height="16"/>
							
								<line fill="none" stroke="#EF6945" stroke-width="2" stroke-miterlimit="10" x1="627.483" y1="232.406" x2="646.727" y2="247.499"/>
							
								<line fill="none" stroke="#EF6945" stroke-width="2" stroke-miterlimit="10" x1="646.797" y1="231.881" x2="627.343" y2="247.429"/>
						</g>
						<circle fill="#EF6945" cx="627.077" cy="231.874" r="2.969"/>
						<circle fill="#EF6945" cx="646.869" cy="231.874" r="2.969"/>
					</g>
					<g>
						<g>
							
								<rect x="627.023" y="215.854" fill="#FF7D5A" stroke="#EF6945" stroke-width="2" stroke-miterlimit="10" width="20" height="16"/>
							
								<line fill="none" stroke="#EF6945" stroke-width="2" stroke-miterlimit="10" x1="627.483" y1="216.406" x2="646.727" y2="231.499"/>
							
								<line fill="none" stroke="#EF6945" stroke-width="2" stroke-miterlimit="10" x1="646.797" y1="215.881" x2="627.343" y2="231.429"/>
						</g>
						<circle fill="#EF6945" cx="627.077" cy="215.874" r="2.969"/>
						<circle fill="#EF6945" cx="646.869" cy="215.874" r="2.969"/>
					</g>
					<g>
						<g>
							
								<rect x="627.023" y="199.854" fill="#FF7D5A" stroke="#EF6945" stroke-width="2" stroke-miterlimit="10" width="20" height="16"/>
							
								<line fill="none" stroke="#EF6945" stroke-width="2" stroke-miterlimit="10" x1="627.483" y1="200.406" x2="646.727" y2="215.499"/>
							
								<line fill="none" stroke="#EF6945" stroke-width="2" stroke-miterlimit="10" x1="646.797" y1="199.881" x2="627.343" y2="215.429"/>
						</g>
						<circle fill="#EF6945" cx="627.077" cy="199.874" r="2.969"/>
						<circle fill="#EF6945" cx="646.869" cy="199.874" r="2.969"/>
					</g>
					<circle fill="#EF6945" cx="627.077" cy="263.833" r="2.969"/>
					<circle fill="#EF6945" cx="646.869" cy="263.833" r="2.969"/>
				</g>
				<g>
					<g>
						<g>
							
								<rect x="627.023" y="183.829" fill="#FF7D5A" stroke="#EF6945" stroke-width="2" stroke-miterlimit="10" width="20" height="16"/>
							
								<line fill="none" stroke="#EF6945" stroke-width="2" stroke-miterlimit="10" x1="627.483" y1="184.38" x2="646.727" y2="199.474"/>
							
								<line fill="none" stroke="#EF6945" stroke-width="2" stroke-miterlimit="10" x1="646.797" y1="183.855" x2="627.343" y2="199.404"/>
						</g>
						<circle fill="#EF6945" cx="627.077" cy="183.849" r="2.969"/>
						<circle fill="#EF6945" cx="646.869" cy="183.849" r="2.969"/>
					</g>
					<g>
						<g>
							
								<rect x="627.023" y="167.829" fill="#FF7D5A" stroke="#EF6945" stroke-width="2" stroke-miterlimit="10" width="20" height="16"/>
							
								<line fill="none" stroke="#EF6945" stroke-width="2" stroke-miterlimit="10" x1="627.483" y1="168.38" x2="646.727" y2="183.474"/>
							
								<line fill="none" stroke="#EF6945" stroke-width="2" stroke-miterlimit="10" x1="646.797" y1="167.855" x2="627.343" y2="183.404"/>
						</g>
						<circle fill="#EF6945" cx="627.077" cy="167.849" r="2.969"/>
						<circle fill="#EF6945" cx="646.869" cy="167.849" r="2.969"/>
					</g>
					<g>
						<g>
							
								<rect x="627.023" y="151.829" fill="#FF7D5A" stroke="#EF6945" stroke-width="2" stroke-miterlimit="10" width="20" height="16"/>
							
								<line fill="none" stroke="#EF6945" stroke-width="2" stroke-miterlimit="10" x1="627.483" y1="152.38" x2="646.727" y2="167.474"/>
							
								<line fill="none" stroke="#EF6945" stroke-width="2" stroke-miterlimit="10" x1="646.797" y1="151.855" x2="627.343" y2="167.404"/>
						</g>
						<circle fill="#EF6945" cx="627.077" cy="151.849" r="2.969"/>
						<circle fill="#EF6945" cx="646.869" cy="151.849" r="2.969"/>
					</g>
					<g>
						<g>
							
								<rect x="627.023" y="135.829" fill="#FF7D5A" stroke="#EF6945" stroke-width="2" stroke-miterlimit="10" width="20" height="16"/>
							
								<line fill="none" stroke="#EF6945" stroke-width="2" stroke-miterlimit="10" x1="627.483" y1="136.38" x2="646.727" y2="151.474"/>
							
								<line fill="none" stroke="#EF6945" stroke-width="2" stroke-miterlimit="10" x1="646.797" y1="135.855" x2="627.343" y2="151.404"/>
						</g>
						<circle fill="#EF6945" cx="627.077" cy="135.849" r="2.969"/>
						<circle fill="#EF6945" cx="646.869" cy="135.849" r="2.969"/>
					</g>
					<g>
						<g>
							
								<rect x="627.023" y="119.787" fill="#FF7D5A" stroke="#EF6945" stroke-width="2" stroke-miterlimit="10" width="20" height="16"/>
							
								<line fill="none" stroke="#EF6945" stroke-width="2" stroke-miterlimit="10" x1="627.483" y1="120.339" x2="646.727" y2="135.432"/>
							
								<line fill="none" stroke="#EF6945" stroke-width="2" stroke-miterlimit="10" x1="646.797" y1="119.814" x2="627.343" y2="135.362"/>
						</g>
						<circle fill="#EF6945" cx="627.077" cy="119.808" r="2.969"/>
						<circle fill="#EF6945" cx="646.869" cy="119.808" r="2.969"/>
					</g>
					<circle fill="#EF6945" cx="627.077" cy="199.807" r="2.969"/>
					<circle fill="#EF6945" cx="646.869" cy="199.807" r="2.969"/>
				</g>
			</g>
			<path fill="#FF7D5A" stroke="#EF6945" stroke-width="2" stroke-miterlimit="10" d="M669.969,89.11c0,8.008-6.492,14.5-14.5,14.5
				h-36.333c-8.008,0-14.5-6.492-14.5-14.5l0,0c0-8.008,6.492-14.5,14.5-14.5h36.333C663.477,74.61,669.969,81.102,669.969,89.11
				L669.969,89.11z"/>
		</g>
		<g>
			<g>
				<g>
					
						<rect x="684.379" y="55.548" fill="#FF7D5A" stroke="#EF6945" stroke-width="2" stroke-linecap="round" stroke-linejoin="round" stroke-miterlimit="10" width="26.058" height="19.094"/>
					
						<line fill="none" stroke="#EF6945" stroke-width="2" stroke-linecap="round" stroke-linejoin="round" stroke-miterlimit="10" x1="685.147" y1="73.982" x2="709.814" y2="56.232"/>
				</g>
				<g>
					
						<rect x="710.462" y="55.548" fill="#FF7D5A" stroke="#EF6945" stroke-width="2" stroke-linecap="round" stroke-linejoin="round" stroke-miterlimit="10" width="26.058" height="19.094"/>
					
						<line fill="none" stroke="#EF6945" stroke-width="2" stroke-linecap="round" stroke-linejoin="round" stroke-miterlimit="10" x1="711.231" y1="73.982" x2="735.897" y2="56.232"/>
				</g>
			</g>
			<g>
				<g>
					
						<rect x="736.545" y="55.548" fill="#FF7D5A" stroke="#EF6945" stroke-width="2" stroke-linecap="round" stroke-linejoin="round" stroke-miterlimit="10" width="26.058" height="19.094"/>
					
						<line fill="none" stroke="#EF6945" stroke-width="2" stroke-linecap="round" stroke-linejoin="round" stroke-miterlimit="10" x1="737.314" y1="73.982" x2="761.981" y2="56.232"/>
				</g>
				<g>
					
						<rect x="762.629" y="55.548" fill="#FF7D5A" stroke="#EF6945" stroke-width="2" stroke-linecap="round" stroke-linejoin="round" stroke-miterlimit="10" width="26.058" height="19.094"/>
					
						<line fill="none" stroke="#EF6945" stroke-width="2" stroke-linecap="round" stroke-linejoin="round" stroke-miterlimit="10" x1="763.397" y1="73.982" x2="788.064" y2="56.232"/>
				</g>
			</g>
		</g>
		<polyline fill="#FF7D5A" stroke="#EF6945" stroke-width="2" stroke-linecap="round" stroke-miterlimit="10" points="
			1205.677,55.519 1205.677,74.642 1231.735,74.642 1205.646,55.519 		"/>
		<g>
			<g>
				<g>
					
						<rect x="1101.459" y="55.548" fill="#FF7D5A" stroke="#EF6945" stroke-width="2" stroke-linecap="round" stroke-linejoin="round" stroke-miterlimit="10" width="26.058" height="19.094"/>
					
						<line fill="none" stroke="#EF6945" stroke-width="2" stroke-linecap="round" stroke-linejoin="round" stroke-miterlimit="10" x1="1102.228" y1="73.982" x2="1126.894" y2="56.232"/>
				</g>
				<g>
					
						<rect x="1127.542" y="55.548" fill="#FF7D5A" stroke="#EF6945" stroke-width="2" stroke-linecap="round" stroke-linejoin="round" stroke-miterlimit="10" width="26.058" height="19.094"/>
					
						<line fill="none" stroke="#EF6945" stroke-width="2" stroke-linecap="round" stroke-linejoin="round" stroke-miterlimit="10" x1="1128.311" y1="73.982" x2="1152.978" y2="56.232"/>
				</g>
			</g>
			<g>
				<g>
					
						<rect x="1153.626" y="55.548" fill="#FF7D5A" stroke="#EF6945" stroke-width="2" stroke-linecap="round" stroke-linejoin="round" stroke-miterlimit="10" width="26.058" height="19.094"/>
					
						<line fill="none" stroke="#EF6945" stroke-width="2" stroke-linecap="round" stroke-linejoin="round" stroke-miterlimit="10" x1="1154.394" y1="73.982" x2="1179.061" y2="56.232"/>
				</g>
				<g>
					
						<rect x="1179.709" y="55.548" fill="#FF7D5A" stroke="#EF6945" stroke-width="2" stroke-linecap="round" stroke-linejoin="round" stroke-miterlimit="10" width="26.058" height="19.094"/>
					
						<line fill="none" stroke="#EF6945" stroke-width="2" stroke-linecap="round" stroke-linejoin="round" stroke-miterlimit="10" x1="1180.478" y1="73.982" x2="1205.144" y2="56.232"/>
				</g>
			</g>
		</g>
		<g>
			<g>
				<g>
					
						<rect x="788.662" y="55.548" fill="#FF7D5A" stroke="#EF6945" stroke-width="2" stroke-linecap="round" stroke-linejoin="round" stroke-miterlimit="10" width="26.058" height="19.094"/>
					
						<line fill="none" stroke="#EF6945" stroke-width="2" stroke-linecap="round" stroke-linejoin="round" stroke-miterlimit="10" x1="789.431" y1="73.982" x2="814.097" y2="56.232"/>
				</g>
				<g>
					
						<rect x="814.745" y="55.548" fill="#FF7D5A" stroke="#EF6945" stroke-width="2" stroke-linecap="round" stroke-linejoin="round" stroke-miterlimit="10" width="26.058" height="19.094"/>
					
						<line fill="none" stroke="#EF6945" stroke-width="2" stroke-linecap="round" stroke-linejoin="round" stroke-miterlimit="10" x1="815.514" y1="73.982" x2="840.181" y2="56.232"/>
				</g>
			</g>
			<g>
				<g>
					
						<rect x="840.829" y="55.548" fill="#FF7D5A" stroke="#EF6945" stroke-width="2" stroke-linecap="round" stroke-linejoin="round" stroke-miterlimit="10" width="26.058" height="19.094"/>
					
						<line fill="none" stroke="#EF6945" stroke-width="2" stroke-linecap="round" stroke-linejoin="round" stroke-miterlimit="10" x1="841.597" y1="73.982" x2="866.264" y2="56.232"/>
				</g>
				<g>
					
						<rect x="866.912" y="55.548" fill="#FF7D5A" stroke="#EF6945" stroke-width="2" stroke-linecap="round" stroke-linejoin="round" stroke-miterlimit="10" width="26.058" height="19.094"/>
					
						<line fill="none" stroke="#EF6945" stroke-width="2" stroke-linecap="round" stroke-linejoin="round" stroke-miterlimit="10" x1="867.681" y1="73.982" x2="892.347" y2="56.232"/>
				</g>
			</g>
		</g>
		<g>
			<g>
				<g>
					<g>
						
							<rect x="892.936" y="55.548" fill="#FF7D5A" stroke="#EF6945" stroke-width="2" stroke-linecap="round" stroke-linejoin="round" stroke-miterlimit="10" width="26.058" height="19.094"/>
						
							<line fill="none" stroke="#EF6945" stroke-width="2" stroke-linecap="round" stroke-linejoin="round" stroke-miterlimit="10" x1="893.704" y1="73.982" x2="918.371" y2="56.232"/>
					</g>
					<g>
						
							<rect x="919.019" y="55.548" fill="#FF7D5A" stroke="#EF6945" stroke-width="2" stroke-linecap="round" stroke-linejoin="round" stroke-miterlimit="10" width="26.058" height="19.094"/>
						
							<line fill="none" stroke="#EF6945" stroke-width="2" stroke-linecap="round" stroke-linejoin="round" stroke-miterlimit="10" x1="919.788" y1="73.982" x2="944.454" y2="56.232"/>
					</g>
				</g>
				<g>
					<g>
						
							<rect x="945.102" y="55.548" fill="#FF7D5A" stroke="#EF6945" stroke-width="2" stroke-linecap="round" stroke-linejoin="round" stroke-miterlimit="10" width="26.058" height="19.094"/>
						
							<line fill="none" stroke="#EF6945" stroke-width="2" stroke-linecap="round" stroke-linejoin="round" stroke-miterlimit="10" x1="945.871" y1="73.982" x2="970.538" y2="56.232"/>
					</g>
					<g>
						
							<rect x="971.186" y="55.548" fill="#FF7D5A" stroke="#EF6945" stroke-width="2" stroke-linecap="round" stroke-linejoin="round" stroke-miterlimit="10" width="26.058" height="19.094"/>
						
							<line fill="none" stroke="#EF6945" stroke-width="2" stroke-linecap="round" stroke-linejoin="round" stroke-miterlimit="10" x1="971.954" y1="73.982" x2="996.621" y2="56.232"/>
					</g>
				</g>
			</g>
			<g>
				<g>
					<g>
						
							<rect x="997.219" y="55.548" fill="#FF7D5A" stroke="#EF6945" stroke-width="2" stroke-linecap="round" stroke-linejoin="round" stroke-miterlimit="10" width="26.058" height="19.094"/>
						
							<line fill="none" stroke="#EF6945" stroke-width="2" stroke-linecap="round" stroke-linejoin="round" stroke-miterlimit="10" x1="997.988" y1="73.982" x2="1022.654" y2="56.232"/>
					</g>
					<g>
						
							<rect x="1023.302" y="55.548" fill="#FF7D5A" stroke="#EF6945" stroke-width="2" stroke-linecap="round" stroke-linejoin="round" stroke-miterlimit="10" width="26.058" height="19.094"/>
						
							<line fill="none" stroke="#EF6945" stroke-width="2" stroke-linecap="round" stroke-linejoin="round" stroke-miterlimit="10" x1="1024.071" y1="73.982" x2="1048.738" y2="56.232"/>
					</g>
				</g>
				<g>
					<g>
						
							<rect x="1049.386" y="55.548" fill="#FF7D5A" stroke="#EF6945" stroke-width="2" stroke-linecap="round" stroke-linejoin="round" stroke-miterlimit="10" width="26.058" height="19.094"/>
						
							<line fill="none" stroke="#EF6945" stroke-width="2" stroke-linecap="round" stroke-linejoin="round" stroke-miterlimit="10" x1="1050.154" y1="73.982" x2="1074.821" y2="56.232"/>
					</g>
					<g>
						
							<rect x="1075.469" y="55.548" fill="#FF7D5A" stroke="#EF6945" stroke-width="2" stroke-linecap="round" stroke-linejoin="round" stroke-miterlimit="10" width="26.058" height="19.094"/>
						
							<line fill="none" stroke="#EF6945" stroke-width="2" stroke-linecap="round" stroke-linejoin="round" stroke-miterlimit="10" x1="1076.238" y1="73.982" x2="1100.904" y2="56.232"/>
					</g>
				</g>
			</g>
		</g>
		
			<rect x="892.937" y="74.68" fill="none" stroke="#EF6945" stroke-width="2" stroke-miterlimit="10" width="52.157" height="11.136"/>
		<g>
			
				<line fill="none" stroke="#FFFFFF" stroke-width="2" stroke-miterlimit="10" x1="919.079" y1="86.821" x2="919.079" y2="101.658"/>
			
				<line fill="none" stroke="#43403F" stroke-width="2" stroke-miterlimit="10" x1="919.079" y1="101.658" x2="919.079" y2="121.392"/>
			
				<rect x="916.322" y="110.104" fill="#FEDA5E" stroke="#F0BE0E" stroke-width="2" stroke-miterlimit="10" width="5.77" height="16.607"/>
			
				<rect x="911.948" y="126.74" fill="#FEDA5E" stroke="#F0BE0E" stroke-width="2" stroke-miterlimit="10" width="14.674" height="5.707"/>
			
				<rect x="905.387" y="132.447" fill="#817878" stroke="#443E40" stroke-width="2" stroke-miterlimit="10" width="27.639" height="5.462"/>
			<polygon fill="#FEDA5E" stroke="#F0BE0E" stroke-width="2" stroke-miterlimit="10" points="939.909,139.795 899.754,139.795 
				889.454,139.795 889.454,147.372 889.454,155.921 899.754,168.46 899.754,147.372 939.909,147.372 939.909,168.46 
				950.209,156.234 950.209,147.372 950.209,139.795 			"/>
		</g>
		<g>
			
				<circle fill="#FF7D5A" stroke="#EF6945" stroke-width="2" stroke-linecap="round" stroke-linejoin="round" stroke-miterlimit="10" cx="905.104" cy="92.441" r="6.625"/>
			
				<circle fill="#FF7D5A" stroke="#EF6945" stroke-width="2" stroke-linecap="round" stroke-linejoin="round" stroke-miterlimit="10" cx="932.927" cy="92.441" r="6.625"/>
		</g>
		<g>
			<defs>
				<circle id="SVGID_1_" cx="919.094" cy="201.387" r="102.253"/>
			</defs>
			<clipPath id="SVGID_2_">
				<use xlink:href="#SVGID_1_"  overflow="visible"/>
			</clipPath>
			<path clip-path="url(#SVGID_2_)" fill="#FFFFFF" stroke="#EF6945" stroke-width="2" stroke-miterlimit="10" d="M849.638,172.58
				h-39.765c-4.786,0-8.68-3.893-8.68-8.68c0-4.786,3.894-8.68,8.68-8.68c1.102,0,2.188,0.211,3.227,0.627l0.573,0.229l0.246-0.567
				c1.938-4.479,6.341-7.373,11.217-7.373c5.334,0,10.01,3.412,11.636,8.49l0.197,0.613l0.61-0.205
				c0.821-0.276,1.666-0.415,2.513-0.415c3.286,0,6.186,1.993,7.386,5.079l0.207,0.534l0.553-0.153
				c0.528-0.146,0.974-0.213,1.4-0.213c2.937,0,5.325,2.403,5.325,5.356S852.575,172.58,849.638,172.58z"/>
		</g>
		
			<rect x="815.992" y="161.735" transform="matrix(-0.7071 -0.7071 0.7071 -0.7071 1289.1526 858.7241)" fill="#EF6945" width="12.864" height="1.27"/>
		
			<rect x="824.574" y="158.105" transform="matrix(-0.707 -0.7072 0.7072 -0.707 1298.5822 855.4578)" fill="#EF6945" width="3.834" height="1.27"/>
		<path fill="#FF7D5A" stroke="#EF6945" stroke-width="2" stroke-miterlimit="10" d="M1036.304,194.591h-37.455
			c-4.508,0-8.176-3.667-8.176-8.176s3.668-8.176,8.176-8.176c1.038,0,2.06,0.199,3.039,0.59l0.54,0.216l0.231-0.534
			c1.826-4.219,5.972-6.945,10.565-6.945c5.024,0,9.429,3.214,10.96,7.997l0.186,0.578l0.575-0.193
			c0.773-0.26,1.569-0.391,2.367-0.391c3.095,0,5.827,1.878,6.957,4.784l0.195,0.503l0.521-0.144
			c0.498-0.137,0.917-0.201,1.319-0.201c2.766,0,5.016,2.263,5.016,5.045C1041.32,192.328,1039.07,194.591,1036.304,194.591z"/>
		<g>
			<defs>
				<circle id="SVGID_3_" cx="919.094" cy="201.387" r="102.253"/>
			</defs>
			<clipPath id="SVGID_4_">
				<use xlink:href="#SVGID_3_"  overflow="visible"/>
			</clipPath>
			<path clip-path="url(#SVGID_4_)" fill="#FFFFFF" stroke="#EF6945" stroke-width="2" stroke-miterlimit="10" d="M1036.304,194.591
				h-37.455c-4.508,0-8.176-3.667-8.176-8.176s3.668-8.176,8.176-8.176c1.038,0,2.06,0.199,3.039,0.59l0.54,0.216l0.231-0.534
				c1.826-4.219,5.972-6.945,10.565-6.945c5.024,0,9.429,3.214,10.96,7.997l0.186,0.578l0.575-0.193
				c0.773-0.26,1.569-0.391,2.367-0.391c3.095,0,5.827,1.878,6.957,4.784l0.195,0.503l0.521-0.144
				c0.498-0.137,0.917-0.201,1.319-0.201c2.766,0,5.016,2.263,5.016,5.045C1041.32,192.328,1039.07,194.591,1036.304,194.591z"/>
		</g>
		
			<rect x="1008.361" y="185.626" transform="matrix(-0.7071 -0.7071 0.7071 -0.7071 1600.0426 1035.2072)" fill="#EF6945" width="12.117" height="1.196"/>
		
			<rect x="1016.445" y="182.207" transform="matrix(-0.707 -0.7072 0.7072 -0.707 1608.9023 1032.1473)" fill="#EF6945" width="3.612" height="1.196"/>
		<g>
			<path fill="#FF7D5A" stroke="#EF6945" stroke-width="2" stroke-miterlimit="10" d="M844.915,224.38
				c-2.026,0-3.674,1.621-3.674,3.612V363.09c0,1.992,1.648,3.612,3.674,3.612h147.875c2.026,0,3.674-1.621,3.674-3.612V227.992
				c0-1.992-1.648-3.612-3.674-3.612H844.915z"/>
			<path fill="#FF7D5A" stroke="#EF6945" stroke-width="2" stroke-miterlimit="10" d="M841.222,237.195v-9.372
				c0-2.28,1.868-4.128,4.172-4.128h146.917c2.304,0,4.172,1.848,4.172,4.128v9.372H841.222z"/>
			
				<ellipse fill="#FF7D5A" stroke="#EF6945" stroke-width="2" stroke-miterlimit="10" cx="850.314" cy="230.736" rx="3.492" ry="3.455"/>
			<rect x="976.769" y="230.343" fill="#EF6945" width="14.227" height="1.548"/>
			<g>
				<g>
					<ellipse fill="#EF6945" cx="906.082" cy="359.081" rx="3.65" ry="3.612"/>
					<ellipse fill="#EF6945" cx="918.858" cy="359.081" rx="3.65" ry="3.612"/>
					<ellipse fill="#EF6945" cx="931.635" cy="359.081" rx="3.65" ry="3.612"/>
				</g>
			</g>
			
				<line fill="none" stroke="#EF6945" stroke-width="2" stroke-miterlimit="10" x1="841.011" y1="351.085" x2="996.125" y2="351.085"/>
			<g>
				
					<line fill="none" stroke="#EF6945" stroke-width="2" stroke-miterlimit="10" x1="853.43" y1="325.948" x2="912.008" y2="325.948"/>
				
					<line fill="none" stroke="#EF6945" stroke-width="2" stroke-miterlimit="10" x1="853.43" y1="332.274" x2="912.008" y2="332.274"/>
				<line fill="none" stroke="#EF6945" stroke-width="2" stroke-miterlimit="10" x1="853.43" y1="338.6" x2="912.008" y2="338.6"/>
				
					<line fill="none" stroke="#EF6945" stroke-width="2" stroke-miterlimit="10" x1="853.43" y1="344.927" x2="912.008" y2="344.927"/>
			</g>
			<g>
				
					<line fill="none" stroke="#EF6945" stroke-width="2" stroke-miterlimit="10" x1="853.43" y1="298.89" x2="912.008" y2="298.89"/>
				
					<line fill="none" stroke="#EF6945" stroke-width="2" stroke-miterlimit="10" x1="853.43" y1="305.217" x2="912.008" y2="305.217"/>
				
					<line fill="none" stroke="#EF6945" stroke-width="2" stroke-miterlimit="10" x1="853.43" y1="311.543" x2="912.008" y2="311.543"/>
				
					<line fill="none" stroke="#EF6945" stroke-width="2" stroke-miterlimit="10" x1="853.43" y1="317.87" x2="912.008" y2="317.87"/>
				
					<line fill="none" stroke="#EF6945" stroke-width="2" stroke-miterlimit="10" x1="925.598" y1="298.89" x2="984.176" y2="298.89"/>
				
					<line fill="none" stroke="#EF6945" stroke-width="2" stroke-miterlimit="10" x1="925.598" y1="305.217" x2="984.176" y2="305.217"/>
				
					<line fill="none" stroke="#EF6945" stroke-width="2" stroke-miterlimit="10" x1="925.598" y1="311.543" x2="984.176" y2="311.543"/>
				
					<line fill="none" stroke="#EF6945" stroke-width="2" stroke-miterlimit="10" x1="925.598" y1="317.87" x2="984.176" y2="317.87"/>
			</g>
			<g>
				
					<line fill="none" stroke="#EF6945" stroke-width="2" stroke-miterlimit="10" x1="925.598" y1="325.948" x2="984.176" y2="325.948"/>
				
					<line fill="none" stroke="#EF6945" stroke-width="2" stroke-miterlimit="10" x1="925.598" y1="332.274" x2="984.176" y2="332.274"/>
				<line fill="none" stroke="#EF6945" stroke-width="2" stroke-miterlimit="10" x1="925.598" y1="338.6" x2="984.176" y2="338.6"/>
				
					<line fill="none" stroke="#EF6945" stroke-width="2" stroke-miterlimit="10" x1="925.598" y1="344.927" x2="984.176" y2="344.927"/>
			</g>
			<g>
				<path fill="none" stroke="#EF6945" stroke-width="2" stroke-miterlimit="10" stroke-dasharray="11.4867,3.8289" d="
					M933.022,272.595c0,1.785-1.29,3.232-2.881,3.232h-22.355c-1.591,0-2.881-1.447-2.881-3.232v-21.653
					c0-1.785,1.29-3.232,2.881-3.232h22.355c1.591,0,2.881,1.447,2.881,3.232V272.595z"/>
			</g>
			<rect x="881.953" y="286.691" fill="#EF6945" width="73.453" height="3.12"/>
		</g>
		<path fill="#FF7647" stroke="#EF6945" stroke-width="2" stroke-miterlimit="10" d="M538.226,65.642"/>
		<g>
			<defs>
				<circle id="SVGID_5_" cx="919.094" cy="201.387" r="102.253"/>
			</defs>
			<clipPath id="SVGID_6_">
				<use xlink:href="#SVGID_5_"  overflow="visible"/>
			</clipPath>
			<g clip-path="url(#SVGID_6_)">
				<path fill="#FFFFFF" stroke="#EF6945" stroke-width="2" stroke-miterlimit="10" d="M844.915,224.38
					c-2.026,0-3.674,1.621-3.674,3.612V363.09c0,1.992,1.648,3.612,3.674,3.612h147.875c2.026,0,3.674-1.621,3.674-3.612V227.992
					c0-1.992-1.648-3.612-3.674-3.612H844.915z"/>
				<path fill="#FF7D5A" stroke="#EF6945" stroke-width="2" stroke-miterlimit="10" d="M841.222,237.195v-9.372
					c0-2.28,1.868-4.128,4.172-4.128h146.917c2.304,0,4.172,1.848,4.172,4.128v9.372H841.222z"/>
				
					<ellipse fill="#FF7D5A" stroke="#EF6945" stroke-width="2" stroke-miterlimit="10" cx="850.314" cy="230.736" rx="3.492" ry="3.455"/>
				<rect x="976.769" y="230.343" fill="#EF6945" width="14.227" height="1.548"/>
				<g>
					<g>
						<ellipse fill="#EF6945" cx="906.082" cy="359.081" rx="3.65" ry="3.612"/>
						<ellipse fill="#EF6945" cx="918.858" cy="359.081" rx="3.65" ry="3.612"/>
						<ellipse fill="#EF6945" cx="931.635" cy="359.081" rx="3.65" ry="3.612"/>
					</g>
				</g>
				
					<line fill="none" stroke="#EF6945" stroke-width="2" stroke-miterlimit="10" x1="841.011" y1="351.085" x2="996.125" y2="351.085"/>
				<g>
					
						<line fill="none" stroke="#EF6945" stroke-width="2" stroke-miterlimit="10" x1="853.43" y1="325.948" x2="912.008" y2="325.948"/>
					
						<line fill="none" stroke="#EF6945" stroke-width="2" stroke-miterlimit="10" x1="853.43" y1="332.274" x2="912.008" y2="332.274"/>
					<line fill="none" stroke="#EF6945" stroke-width="2" stroke-miterlimit="10" x1="853.43" y1="338.6" x2="912.008" y2="338.6"/>
					
						<line fill="none" stroke="#EF6945" stroke-width="2" stroke-miterlimit="10" x1="853.43" y1="344.927" x2="912.008" y2="344.927"/>
				</g>
				<g>
					
						<line fill="none" stroke="#EF6945" stroke-width="2" stroke-miterlimit="10" x1="853.43" y1="298.89" x2="912.008" y2="298.89"/>
					
						<line fill="none" stroke="#EF6945" stroke-width="2" stroke-miterlimit="10" x1="853.43" y1="305.217" x2="912.008" y2="305.217"/>
					
						<line fill="none" stroke="#EF6945" stroke-width="2" stroke-miterlimit="10" x1="853.43" y1="311.543" x2="912.008" y2="311.543"/>
					
						<line fill="none" stroke="#EF6945" stroke-width="2" stroke-miterlimit="10" x1="853.43" y1="317.87" x2="912.008" y2="317.87"/>
					
						<line fill="none" stroke="#EF6945" stroke-width="2" stroke-miterlimit="10" x1="925.598" y1="298.89" x2="984.176" y2="298.89"/>
					
						<line fill="none" stroke="#EF6945" stroke-width="2" stroke-miterlimit="10" x1="925.598" y1="305.217" x2="984.176" y2="305.217"/>
					
						<line fill="none" stroke="#EF6945" stroke-width="2" stroke-miterlimit="10" x1="925.598" y1="311.543" x2="984.176" y2="311.543"/>
					
						<line fill="none" stroke="#EF6945" stroke-width="2" stroke-miterlimit="10" x1="925.598" y1="317.87" x2="984.176" y2="317.87"/>
				</g>
				<g>
					
						<line fill="none" stroke="#EF6945" stroke-width="2" stroke-miterlimit="10" x1="925.598" y1="325.948" x2="984.176" y2="325.948"/>
					
						<line fill="none" stroke="#EF6945" stroke-width="2" stroke-miterlimit="10" x1="925.598" y1="332.274" x2="984.176" y2="332.274"/>
					
						<line fill="none" stroke="#EF6945" stroke-width="2" stroke-miterlimit="10" x1="925.598" y1="338.6" x2="984.176" y2="338.6"/>
					
						<line fill="none" stroke="#EF6945" stroke-width="2" stroke-miterlimit="10" x1="925.598" y1="344.927" x2="984.176" y2="344.927"/>
				</g>
				<g>
					<path fill="none" stroke="#EF6945" stroke-width="2" stroke-miterlimit="10" stroke-dasharray="11.4867,3.8289" d="
						M933.022,272.595c0,1.785-1.29,3.232-2.881,3.232h-22.355c-1.591,0-2.881-1.447-2.881-3.232v-21.653
						c0-1.785,1.29-3.232,2.881-3.232h22.355c1.591,0,2.881,1.447,2.881,3.232V272.595z"/>
				</g>
				<rect x="881.953" y="286.691" fill="#EF6945" width="73.453" height="3.12"/>
			</g>
		</g>
	</g>
	<g>
		<path fill="#FFFFFF" d="M939.589,177.397c0,10.914-8.788,19.896-19.729,19.896c-11.092,0-19.896-8.981-19.896-19.896
			c0-11.077,8.804-19.895,19.896-19.895C930.8,157.502,939.589,166.32,939.589,177.397"/>
		<path fill-rule="evenodd" clip-rule="evenodd" fill="#FF9971" d="M914.598,177.496c-5.732-0.81-9.434-3.842-9.163-6.598
			c1.108,2.017,5.245,3.521,10.29,3.665C915.391,175.56,915.014,176.539,914.598,177.496 M933.145,167.088
			c1.336,3.043-2.541,7.124-7.782,9.203c-0.208-0.981-0.454-1.947-0.737-2.897c4.727-1.433,7.948-3.927,8.454-6.159
			C933.103,167.186,933.125,167.137,933.145,167.088z M913.988,170.171c0.363,0.065,0.88,0.147,1.523,0.212
			c0.547,0.056,1.187,0.1,1.9,0.113c0.307-1.463,0.496-2.802,0.607-3.967c0.238-2.499,0.183-4.256,0.172-4.629
			c-0.001-0.05-0.001-0.001,0,0c1.995,2.664,3.511,5.373,4.636,8.072c0.105-0.023,0.21-0.046,0.315-0.071
			c1.45-0.337,2.979-0.842,4.529-1.586l0.525,1.267l0.075,0.181l-0.105,0.052c-1.62,0.805-3.217,1.354-4.731,1.72
			c1.96,5.407,2.412,10.733,2.068,15.541l0.003-0.01l-0.029,0.463l0.528-2.117h3.091l0.722,2.036l1.37-5.322h-0.8l2.425-2.093
			l1.74,2.031h-0.915l-1.968,7.912l-3.467,0.001l-0.41-1.158l-0.289,1.157h-2.184v0l-6.977,0c1.916-4.315,2.689-8.341,2.884-12.545
			c-0.174,0.027-0.348,0.052-0.522,0.073c-0.233,0.03-0.464,0.056-0.693,0.079c-0.849,4.836-3.171,9.275-5.741,12.392h-7.744
			c6.157-5.842,9.115-12.454,10.494-17.803c-0.988-0.036-1.83-0.129-2.479-0.225c-0.4-0.059-0.729-0.118-0.975-0.167
			c-0.097,0.238-0.209,0.472-0.336,0.699l-3.617-0.706c1.403-0.802,3.242-2.491,3.655-4.609c0.044-0.225,0.075-0.45,0.095-0.674
			C913.94,167.64,914.146,168.925,913.988,170.171z"/>
	</g>
	<g>
		<path fill="#EF6945" d="M389.307,287.56c-0.894,0-1.797,0.095-2.777,0.297c-3.495-7.635-10.985-12.5-19.423-12.5
			c-1.808,0-3.611,0.235-5.378,0.699c-4.556-12.276-16.193-20.426-29.401-20.426c-12.049,0-22.976,6.885-28.213,17.656
			c-2.359-0.786-4.802-1.184-7.279-1.184c-12.758,0-23.137,10.379-23.137,23.137s10.379,23.137,23.137,23.137h92.47
			c8.455,0,15.336-6.913,15.336-15.408S397.762,287.56,389.307,287.56z"/>
		<path fill="#FF7D5A" d="M389.307,315.424h-92.47c-11.129,0-20.184-9.054-20.184-20.184s9.055-20.184,20.184-20.184
			c2.564,0,5.087,0.49,7.504,1.458l1.332,0.534l0.571-1.318c4.507-10.416,14.745-17.146,26.084-17.146
			c12.403,0,23.278,7.935,27.059,19.743l0.459,1.426l1.419-0.476c1.909-0.642,3.873-0.966,5.843-0.966
			c7.642,0,14.385,4.636,17.176,11.811l0.482,1.243l1.286-0.355c1.229-0.339,2.264-0.496,3.256-0.496
			c6.829,0,12.383,5.587,12.383,12.455S396.136,315.424,389.307,315.424z"/>
		
			<rect x="311.065" y="290.205" transform="matrix(-0.7071 -0.7071 0.7071 -0.7071 350.3052 728.4637)" fill="#EF6945" width="29.915" height="2.953"/>
		
			<rect x="331.022" y="281.765" transform="matrix(-0.707 -0.7072 0.7072 -0.707 372.3683 720.7469)" fill="#EF6945" width="8.916" height="2.953"/>
	</g>
	<path fill="#FF7D5A" stroke="#EF6945" stroke-width="2.6" stroke-miterlimit="10" d="M463.009,190.651h66.247
		c7.973,0,14.46-6.486,14.46-14.46s-6.487-14.46-14.46-14.46c-1.837,0-3.645,0.351-5.376,1.044l-0.954,0.382l-0.409-0.944
		c-3.229-7.462-10.564-12.284-18.687-12.284c-8.886,0-16.677,5.685-19.386,14.144l-0.328,1.022l-1.017-0.341
		c-1.368-0.46-2.775-0.692-4.186-0.692c-5.475,0-10.305,3.321-12.305,8.461l-0.345,0.89l-0.921-0.254
		c-0.88-0.243-1.622-0.355-2.333-0.355c-4.892,0-8.872,4.003-8.872,8.923S458.117,190.651,463.009,190.651z"/>
	
		<rect x="497.631" y="172.584" transform="matrix(0.7071 -0.7071 0.7071 0.7071 26.1081 410.3142)" fill="#EF6945" width="21.431" height="2.115"/>
	
		<rect x="498.378" y="166.537" transform="matrix(0.707 -0.7072 0.7072 0.707 28.4263 403.8062)" fill="#EF6945" width="6.388" height="2.115"/>
	<rect y="380" fill="#EF6945" width="1856" height="20"/>
</g>
</svg>
