<?xml version="1.0" encoding="utf-8"?>
<!-- Generator: Adobe Illustrator 17.0.0, SVG Export Plug-In . SVG Version: 6.00 Build 0)  -->
<!DOCTYPE svg PUBLIC "-//W3C//DTD SVG 1.1//EN" "http://www.w3.org/Graphics/SVG/1.1/DTD/svg11.dtd">
<svg version="1.1" id="图层_1" xmlns="http://www.w3.org/2000/svg" xmlns:xlink="http://www.w3.org/1999/xlink" x="0px" y="0px"
	 width="170px" height="60px" viewBox="0 0 170 60" enable-background="new 0 0 170 60" xml:space="preserve">
<path fill="#3FB7F6" d="M170,54c0,3.314-2.686,6-6,6H6c-3.314,0-6-2.686-6-6V6c0-3.314,2.686-6,6-6h158c3.314,0,6,2.686,6,6V54z"/>
<g>
	<path fill="#FFFFFF" d="M35.345,43.522c0,0.205,0,0.36,0,0.515c0.001,2.003,0.007,4.005,0.001,6.008
		c-0.003,0.886,0.399,1.531,1.198,1.857c0.45,0.184,0.966,0.269,1.455,0.282c1.305,0.034,2.231-0.901,2.233-2.191
		c0.003-1.971,0.018-3.942-0.009-5.913c-0.007-0.492,0.151-0.627,0.622-0.599c0.547,0.033,1.113,0.057,1.647-0.041
		c1.556-0.286,2.477-1.662,2.47-3.063c-0.029-6.008-0.012-12.015-0.013-18.023c0-0.151-0.021-0.303-0.031-0.443
		c-8.037,0-16.023,0-24.051,0c0,0.205,0,0.375,0,0.545c0,5.992,0.002,11.984-0.001,17.976c-0.001,1.422,0.864,2.63,2.24,2.945
		c0.602,0.138,1.249,0.118,1.873,0.103c0.453-0.011,0.596,0.122,0.59,0.581c-0.023,2.002,0.003,4.005-0.018,6.007
		c-0.01,0.949,0.446,1.579,1.283,1.887c0.485,0.178,1.055,0.282,1.561,0.218c1.125-0.143,2.093-0.836,2.068-2.248
		c-0.034-1.923-0.01-3.847-0.01-5.771c0-0.2,0-0.4,0-0.631C32.102,43.522,33.686,43.522,35.345,43.522z"/>
	<path fill="#FFFFFF" d="M46.937,29.887c0.001,0,0.001,0,0.001,0c0.001,1.97,0.012,3.939-0.005,5.909
		c-0.008,0.879,0.388,1.512,1.166,1.819c0.507,0.2,1.094,0.28,1.643,0.272c1.164-0.017,2.092-0.962,2.094-2.068
		c0.007-3.876,0.009-7.752-0.01-11.628c-0.002-0.345-0.094-0.73-0.265-1.027c-0.478-0.833-1.275-1.098-2.197-1.101
		c-1.575-0.005-2.423,0.82-2.426,2.388C46.935,26.263,46.937,28.075,46.937,29.887z"/>
	<path fill="#FFFFFF" d="M18.924,30.005c0-2.001,0.021-4.002-0.019-6.002c-0.008-0.374-0.181-0.812-0.422-1.1
		c-0.721-0.866-1.708-0.998-2.747-0.755c-1.059,0.248-1.681,0.965-1.682,1.877c-0.003,3.986-0.014,7.971,0.023,11.957
		c0.004,0.394,0.226,0.866,0.498,1.163c0.681,0.744,1.596,0.913,2.555,0.698c1.274-0.284,1.794-0.97,1.794-2.262
		C18.923,33.723,18.923,31.864,18.924,30.005z"/>
	<path fill="#FFFFFF" d="M38.879,11.356c0.109-0.176,0.186-0.308,0.271-0.435c0.535-0.796,1.088-1.582,1.595-2.395
		c0.095-0.153,0.098-0.507-0.01-0.613c-0.221-0.218-0.457-0.062-0.608,0.186c-0.041,0.067-0.089,0.13-0.133,0.195
		c-0.618,0.926-1.236,1.853-1.787,2.68c-1.414-0.221-2.751-0.531-4.101-0.617c-2.057-0.132-4.115-0.018-6.103,0.631
		c-0.26,0.085-0.412,0.043-0.572-0.207c-0.567-0.888-1.165-1.757-1.755-2.631c-0.155-0.229-0.332-0.459-0.647-0.238
		c-0.297,0.208-0.139,0.432,0.006,0.648c0.527,0.784,1.054,1.567,1.577,2.353c0.091,0.136,0.161,0.286,0.255,0.455
		c-3.756,1.729-5.643,4.677-6.038,8.709c8.09,0,16.084,0,24.16,0C44.579,15.988,42.643,13.047,38.879,11.356z M27.7,16.766
		c-0.813,0.002-1.396-0.583-1.392-1.398c0.004-0.739,0.643-1.375,1.393-1.387c0.744-0.011,1.412,0.672,1.401,1.432
		C29.092,16.169,28.475,16.764,27.7,16.766z M38.073,16.769c-0.795,0.005-1.435-0.623-1.42-1.393
		c0.015-0.742,0.669-1.393,1.399-1.393c0.775,0.001,1.357,0.62,1.359,1.445C39.413,16.192,38.841,16.764,38.073,16.769z"/>
</g>
<g>
	<path fill="#FFFFFF" d="M79.906,40.226H77.1l-2.006-5.383h-8.188l-1.892,5.383h-2.806l7.49-19.665h2.717L79.906,40.226z
		 M74.307,32.622l-2.971-8.176c-0.093-0.262-0.195-0.719-0.305-1.371h-0.063c-0.093,0.592-0.199,1.049-0.317,1.371l-2.945,8.176
		H74.307z"/>
	<path fill="#FFFFFF" d="M94.303,40.226h-2.476v-7.985c0-2.886-1.054-4.329-3.161-4.329c-1.092,0-1.989,0.406-2.692,1.219
		s-1.054,1.841-1.054,3.085v8.01h-2.488V26.185h2.488v2.323h0.051c1.058-1.769,2.594-2.653,4.609-2.653
		c1.54,0,2.713,0.493,3.517,1.479s1.206,2.423,1.206,4.31V40.226z"/>
	<path fill="#FFFFFF" d="M110.642,40.226h-2.488V37.89h-0.051c-1.024,1.777-2.615,2.666-4.773,2.666c-1.777,0-3.19-0.633-4.24-1.897
		c-1.05-1.266-1.574-2.973-1.574-5.123c0-2.318,0.593-4.178,1.777-5.579s2.733-2.101,4.646-2.101s3.301,0.745,4.164,2.234h0.051
		v-8.646h2.488V40.226z M108.166,31.873c0-1.125-0.37-2.067-1.111-2.825c-0.74-0.757-1.652-1.136-2.735-1.136
		c-1.32,0-2.361,0.493-3.123,1.479s-1.143,2.33-1.143,4.03c0,1.566,0.366,2.804,1.099,3.714c0.731,0.909,1.707,1.364,2.926,1.364
		c1.202,0,2.184-0.446,2.945-1.339c0.762-0.894,1.143-2.004,1.143-3.333V31.873z"/>
	<path fill="#FFFFFF" d="M122.613,28.648c-0.415-0.296-0.986-0.444-1.714-0.444c-0.965,0-1.761,0.451-2.387,1.352
		s-0.939,2.088-0.939,3.561v7.109h-2.488V26.185h2.488v2.856h0.051c0.711-2.065,1.938-3.098,3.682-3.098
		c0.567,0,1.003,0.063,1.308,0.19V28.648z"/>
	<path fill="#FFFFFF" d="M123.705,33.358c0-2.318,0.647-4.149,1.942-5.49s3.051-2.012,5.269-2.012c2.107,0,3.76,0.646,4.958,1.936
		c1.197,1.291,1.796,3.074,1.796,5.351c0,2.217-0.639,4.007-1.917,5.37c-1.278,1.363-2.992,2.044-5.142,2.044
		c-2.099,0-3.774-0.66-5.027-1.98S123.705,35.516,123.705,33.358z M126.244,33.281c0,1.617,0.408,2.891,1.226,3.821
		c0.816,0.932,1.914,1.396,3.294,1.396c1.422,0,2.505-0.455,3.25-1.364c0.745-0.91,1.117-2.216,1.117-3.917
		c0-1.709-0.372-3.021-1.117-3.935s-1.828-1.371-3.25-1.371c-1.396,0-2.499,0.478-3.308,1.435
		C126.648,30.303,126.244,31.615,126.244,33.281z"/>
	<path fill="#FFFFFF" d="M140.869,21.234c0-0.44,0.15-0.811,0.45-1.111c0.301-0.3,0.671-0.451,1.111-0.451
		c0.448,0,0.827,0.148,1.137,0.444c0.309,0.296,0.463,0.668,0.463,1.117c0,0.44-0.154,0.806-0.463,1.098
		c-0.31,0.292-0.688,0.438-1.137,0.438s-0.821-0.146-1.117-0.438S140.869,21.674,140.869,21.234z M141.161,40.226V26.185h2.488
		v14.041H141.161z"/>
	<path fill="#FFFFFF" d="M160.28,40.226h-2.488V37.89h-0.051c-1.024,1.777-2.615,2.666-4.773,2.666c-1.777,0-3.19-0.633-4.24-1.897
		c-1.05-1.266-1.574-2.973-1.574-5.123c0-2.318,0.593-4.178,1.777-5.579s2.733-2.101,4.646-2.101s3.301,0.745,4.164,2.234h0.051
		v-8.646h2.488V40.226z M157.805,31.873c0-1.125-0.37-2.067-1.111-2.825c-0.74-0.757-1.652-1.136-2.735-1.136
		c-1.32,0-2.361,0.493-3.123,1.479s-1.143,2.33-1.143,4.03c0,1.566,0.366,2.804,1.099,3.714c0.731,0.909,1.707,1.364,2.926,1.364
		c1.202,0,2.184-0.446,2.945-1.339c0.762-0.894,1.143-2.004,1.143-3.333V31.873z"/>
</g>
</svg>
