<?xml version="1.0" encoding="utf-8"?>
<!-- Generator: Adobe Illustrator 17.0.0, SVG Export Plug-In . SVG Version: 6.00 Build 0)  -->
<!DOCTYPE svg PUBLIC "-//W3C//DTD SVG 1.1//EN" "http://www.w3.org/Graphics/SVG/1.1/DTD/svg11.dtd">
<svg version="1.1" id="图层_1" xmlns="http://www.w3.org/2000/svg" xmlns:xlink="http://www.w3.org/1999/xlink" x="0px" y="0px"
	 width="170px" height="60px" viewBox="0 0 170 60" enable-background="new 0 0 170 60" xml:space="preserve">
<path fill="#FDB21C" d="M170,54c0,3.314-2.686,6-6,6H6c-3.314,0-6-2.686-6-6V6c0-3.314,2.686-6,6-6h158c3.314,0,6,2.686,6,6V54z"/>
<g>
	<path fill="#FFFFFF" d="M52.873,22.327c-0.612-0.903-1.285-1.693-2.122-2.311c-3.303-2.442-6.927-3.13-10.867-1.879
		c-1.389,0.441-2.758,0.946-4.131,1.436c-0.597,0.213-1.185,0.247-1.787,0.035c-1.221-0.431-2.44-0.865-3.666-1.28
		c-1.179-0.399-2.377-0.721-3.639-0.675c-2.476,0.091-4.691,0.918-6.623,2.452c-2.91,2.31-4.389,5.425-4.92,9.034
		c-0.402,2.735-0.21,5.455,0.369,8.146c0.976,4.537,2.831,8.673,5.685,12.351c0.999,1.287,2.038,2.527,3.397,3.456
		c1.187,0.811,2.493,1.181,3.905,0.821c1.071-0.273,2.124-0.637,3.158-1.031c2.243-0.854,4.499-1.073,6.799-0.271
		c0.77,0.269,1.523,0.589,2.295,0.854c1.402,0.48,2.822,0.739,4.286,0.252c1.214-0.404,2.197-1.156,3.041-2.081
		c2.153-2.358,3.894-4.992,5.154-7.932c0.341-0.795,0.628-1.613,0.932-2.401c-3.807-1.922-6.138-4.82-6.433-9.127
		C47.408,27.861,49.22,24.621,52.873,22.327z"/>
	<path fill="#FFFFFF" d="M44.105,5.95c-5.946,0.46-10.339,6.318-9.585,11.067c1.421,0.12,2.789-0.109,4.028-0.817
		c2.958-1.69,4.743-4.25,5.445-7.571C44.178,7.751,44.181,6.861,44.105,5.95z"/>
</g>
<g>
	<path fill="#FFFFFF" d="M70.351,21.234c0-0.44,0.15-0.811,0.45-1.111c0.301-0.3,0.671-0.451,1.111-0.451
		c0.448,0,0.827,0.148,1.137,0.444c0.309,0.296,0.463,0.668,0.463,1.117c0,0.44-0.154,0.806-0.463,1.098
		c-0.31,0.292-0.688,0.438-1.137,0.438s-0.821-0.146-1.117-0.438S70.351,21.674,70.351,21.234z M70.643,40.226V26.185h2.488v14.042
		H70.643z"/>
	<path fill="#FFFFFF" d="M80.431,32.875v7.351h-2.539V20.561h5.586c2.124,0,3.772,0.512,4.945,1.536
		c1.172,1.024,1.758,2.488,1.758,4.393c0,1.93-0.686,3.493-2.057,4.691s-3.084,1.763-5.141,1.695H80.431z M80.431,22.795v7.846
		h2.349c1.549,0,2.726-0.349,3.529-1.047c0.804-0.698,1.206-1.699,1.206-3.002c0-2.531-1.498-3.796-4.494-3.796H80.431z"/>
	<path fill="#FFFFFF" d="M105.339,40.226h-2.476v-8.075c0-2.827-1.05-4.24-3.148-4.24c-1.075,0-1.968,0.413-2.679,1.238
		s-1.066,1.864-1.066,3.117v7.96h-2.488V19.444h2.488v9.052h0.051c1.075-1.76,2.603-2.641,4.583-2.641
		c3.157,0,4.735,1.909,4.735,5.726V40.226z"/>
	<path fill="#FFFFFF" d="M108.551,33.358c0-2.319,0.647-4.149,1.942-5.491s3.051-2.012,5.269-2.012c2.107,0,3.76,0.646,4.958,1.936
		c1.197,1.291,1.796,3.074,1.796,5.351c0,2.217-0.639,4.007-1.917,5.371c-1.278,1.362-2.992,2.044-5.142,2.044
		c-2.099,0-3.774-0.66-5.027-1.98S108.551,35.516,108.551,33.358z M111.09,33.281c0,1.617,0.408,2.89,1.226,3.822
		c0.816,0.931,1.914,1.396,3.294,1.396c1.422,0,2.505-0.455,3.25-1.365c0.745-0.909,1.117-2.215,1.117-3.917
		c0-1.709-0.372-3.021-1.117-3.936s-1.828-1.371-3.25-1.371c-1.396,0-2.499,0.478-3.308,1.435
		C111.494,30.302,111.09,31.614,111.09,33.281z"/>
	<path fill="#FFFFFF" d="M137.89,40.226h-2.476V32.24c0-2.886-1.054-4.329-3.161-4.329c-1.092,0-1.989,0.406-2.691,1.219
		s-1.054,1.841-1.054,3.085v8.011h-2.488V26.185h2.488v2.323h0.051c1.058-1.769,2.594-2.653,4.608-2.653
		c1.54,0,2.713,0.493,3.517,1.479s1.206,2.423,1.206,4.31V40.226z"/>
	<path fill="#FFFFFF" d="M153.479,33.841h-9.826c0.042,1.498,0.453,2.655,1.231,3.472c0.778,0.817,1.866,1.226,3.263,1.226
		c1.574,0,3.018-0.504,4.329-1.511v2.222c-1.235,0.871-2.873,1.308-4.913,1.308c-2.031,0-3.616-0.644-4.754-1.93
		c-1.139-1.287-1.708-3.072-1.708-5.358c0-2.15,0.624-3.923,1.872-5.319c1.249-1.396,2.8-2.095,4.653-2.095
		c1.837,0,3.271,0.59,4.304,1.771s1.549,2.833,1.549,4.958V33.841z M150.991,31.847c-0.009-1.27-0.309-2.251-0.901-2.945
		s-1.426-1.041-2.501-1.041c-0.99,0-1.848,0.368-2.57,1.104c-0.725,0.736-1.179,1.697-1.365,2.882H150.991z"/>
</g>
</svg>
