<?xml version="1.0" encoding="utf-8"?>
<!-- Generator: Adobe Illustrator 17.0.0, SVG Export Plug-In . SVG Version: 6.00 Build 0)  -->
<!DOCTYPE svg PUBLIC "-//W3C//DTD SVG 1.1//EN" "http://www.w3.org/Graphics/SVG/1.1/DTD/svg11.dtd">
<svg version="1.1" id="图层_2" xmlns="http://www.w3.org/2000/svg" xmlns:xlink="http://www.w3.org/1999/xlink" x="0px" y="0px"
	 width="510.855px" height="498px" viewBox="0 0 510.855 498" enable-background="new 0 0 510.855 498" xml:space="preserve">
<g>
	<g>
		<g>
			<g>
				<polygon fill="#1A9D71" points="62.065,276.341 135.947,276.341 149.535,289.929 45.081,289.929 				"/>
				<polygon fill="#26C396" points="50.176,389.075 45.081,289.929 149.535,289.929 149.535,389.712 				"/>
				<path fill="#1A9D71" d="M139.388,317.983c-0.925-0.858-2.236-1.157-3.441-0.785l-17.332,5.347
					c-1.205,0.372-2.12,1.358-2.401,2.588c-0.281,1.229,0.116,2.515,1.041,3.373l4.324,4.012
					c-5.702,5.7-11.365,11.362-17.053,17.048c-0.145-0.135-0.362-0.324-0.565-0.527c-4.099-4.096-8.197-8.193-12.292-12.291
					c-1.898-1.899-3.233-1.911-5.108-0.036c-7.362,7.362-14.725,14.724-22.086,22.088c-0.27,0.27-0.552,0.535-0.777,0.841
					c-1.221,1.663-0.306,3.995,1.716,4.405c1.197,0.243,2.089-0.266,2.907-1.086c6.668-6.685,13.348-13.358,20.025-20.033
					c0.241-0.241,0.493-0.47,0.868-0.826c0.302,0.374,0.517,0.697,0.786,0.966c4.05,4.061,8.106,8.117,12.164,12.17
					c1.749,1.747,3.178,1.747,4.917,0.009c6.257-6.256,12.513-12.512,18.769-18.768l4.702,4.363
					c0.001,0.001,0.002,0.001,0.003,0.002c1.429,1.326,3.663,1.242,4.988-0.187c0.476-0.513,0.77-1.129,0.886-1.769l4-17.532
					C140.71,320.126,140.313,318.841,139.388,317.983z"/>
			</g>
			<g>
				<polygon fill="#1984BA" points="285.835,276.396 353.666,276.396 367.519,292.297 284.242,292.297 				"/>
				<polygon fill="#2AB4F2" points="280.739,389.712 364.812,389.712 367.519,292.297 284.242,292.297 				"/>
				<path fill="#1984BA" d="M347.962,317.983c-0.925-0.858-2.236-1.157-3.441-0.785l-17.332,5.347
					c-1.205,0.372-2.12,1.358-2.401,2.588c-0.281,1.229,0.116,2.515,1.041,3.373l4.324,4.012
					c-5.702,5.7-11.365,11.362-17.053,17.048c-0.145-0.135-0.362-0.324-0.565-0.527c-4.099-4.096-8.197-8.193-12.293-12.291
					c-1.898-1.899-3.233-1.911-5.108-0.036c-7.362,7.362-14.725,14.724-22.086,22.088c-0.27,0.27-0.552,0.535-0.777,0.841
					c-1.221,1.663-0.306,3.995,1.716,4.405c1.197,0.243,2.089-0.266,2.907-1.086c6.668-6.685,13.348-13.358,20.025-20.033
					c0.241-0.241,0.493-0.47,0.868-0.826c0.302,0.374,0.517,0.697,0.786,0.966c4.05,4.061,8.106,8.117,12.164,12.17
					c1.749,1.747,3.178,1.747,4.917,0.009c6.257-6.256,12.513-12.512,18.769-18.768l4.702,4.363
					c0.001,0.001,0.002,0.001,0.003,0.002c1.429,1.326,3.663,1.242,4.988-0.187c0.476-0.513,0.77-1.129,0.886-1.769l4-17.532
					C349.283,320.126,348.887,318.841,347.962,317.983z"/>
			</g>
			<g>
				<polygon fill="#FF4848" points="134.567,257.871 286.153,258.508 266.409,238.126 155.586,238.126 				"/>
				<polyline fill="#FF6161" points="286.153,258.185 286.153,388.916 286.153,389.712 139.185,389.712 134.727,389.712 
					134.727,257.871 				"/>
			</g>
		</g>
		<path fill="#FFFFFF" d="M264.622,290.461c-1.366-1.268-3.305-1.71-5.086-1.161l-25.617,7.904
			c-1.781,0.549-3.134,2.008-3.548,3.825c-0.415,1.817,0.172,3.718,1.538,4.985l6.391,5.929
			c-8.427,8.425-16.798,16.794-25.205,25.198c-0.215-0.199-0.535-0.478-0.835-0.778c-6.058-6.054-12.115-12.109-18.169-18.167
			c-2.805-2.807-4.778-2.824-7.55-0.053c-10.882,10.882-21.764,21.763-32.643,32.647c-0.399,0.399-0.816,0.791-1.148,1.243
			c-1.805,2.458-0.452,5.905,2.536,6.511c1.769,0.359,3.088-0.394,4.297-1.605c9.855-9.88,19.728-19.743,29.598-29.609
			c0.356-0.356,0.729-0.695,1.283-1.221c0.446,0.553,0.764,1.03,1.161,1.428c5.986,6.003,11.981,11.997,17.978,17.988
			c2.585,2.582,4.697,2.583,7.267,0.013c9.247-9.246,18.494-18.493,27.741-27.739l6.95,6.448c0.001,0.001,0.002,0.002,0.004,0.004
			c2.112,1.96,5.413,1.836,7.373-0.276c0.703-0.758,1.138-1.668,1.309-2.615l5.912-25.913
			C266.575,293.629,265.988,291.729,264.622,290.461z"/>
	</g>
	<g>
		<ellipse fill="#EF2929" cx="187.909" cy="246.512" rx="10.668" ry="3.821"/>
		<ellipse fill="#EF2929" cx="232.812" cy="247.149" rx="10.668" ry="3.821"/>
		<path fill="#FFF5C2" d="M170.341,167.004c0,0-38.215-16.56-35.667-79.402c0,0,9.341-59.021,78.128-62.418
			c0,0,73.882-0.849,76.005,81.95c0,0-0.849,40.763-39.489,62.418c0,0,21.655-3.397,28.873-1.698c0,0,5.945-8.068,11.889,1.274
			c0,0,2.123,6.794-6.369,8.917c0,0-4.671-0.849-5.52-3.821c0,0-31.846,7.218-36.092,23.354v42.886c0,0-1.274,11.889-13.163,8.068
			c0,0-2.548-2.123,0.849-7.218v-16.984c0,0-22.929,8.492-38.639-0.425c0,0-3.821,1.274-2.548,16.984c0,0,5.52,3.397,0.849,6.794
			c0,0-7.218,2.972-11.04-5.945c0,0-2.972-37.79-2.972-46.707c0,0-3.397-19.957-41.187-24.203c0,0-11.04,2.972-10.615-8.068
			c0,0,7.643-9.341,13.163,0.849C136.797,163.607,156.753,163.183,170.341,167.004z"/>
		<g>
			<defs>
				<rect id="SVGID_1_" x="163.971" y="126.029" width="86.196" height="37.366"/>
			</defs>
			<clipPath id="SVGID_2_">
				<use xlink:href="#SVGID_1_"  overflow="visible"/>
			</clipPath>
			<circle clip-path="url(#SVGID_2_)" fill="#FC7B68" cx="209.617" cy="130.7" r="29.086"/>
		</g>
		<g>
			<circle fill="#F99300" cx="209.564" cy="197.629" r="11.942"/>
			<polygon fill="#F99300" points="200.17,192.375 177.241,172.949 178.833,171.675 202.717,189.508 			"/>
			<polygon fill="#F99300" points="216.729,188.872 238.703,172.949 239.977,174.859 218.64,191.738 			"/>
		</g>
		<g>
			<path fill="#FFFFFF" d="M208.623,190.933h2.779v15.135h-3.031v-12.172l-3.261,1.906l-0.988-2.273L208.623,190.933z"/>
		</g>
		<g>
			<path fill="#FFE636" d="M96.671,130.594c0,0-10.191-7.643-14.331-2.548c0,0-6.688,2.866-0.955,11.783
				c0,0,7.643,11.783,14.331,12.101h10.509l0.955,4.458l3.821-0.318l-1.592-9.235c0,0-6.688,1.592-15.604-0.637
				c0,0-11.146-9.235-10.828-13.057c0,0,2.866-6.369,7.643-1.592l8.598,4.458L96.671,130.594z"/>
			<path fill="#FFE636" d="M135.035,119.954c0,0,4.055-12.076,10.355-10.229c0,0,7.133-1.435,7.472,9.16
				c0,0,0.392,14.039-4.934,18.096l-8.654,5.963l1.743,4.213l-3.327,1.906l-3.929-8.508c0,0,6.41-2.483,12.488-9.379
				c0,0,3.938-13.929,1.507-16.895c0,0-5.974-3.618-7.197,3.026l-4.55,8.55L135.035,119.954z"/>
			<polygon fill="#FFE134" points="92.213,117.856 94.442,125.499 133.294,112.123 130.109,105.436 			"/>
			<path fill="#FCF966" d="M123.421,159.892c0,0-7.961-6.369-12.738-6.051c0,0-12.101-2.866-16.241-28.343l37.578-14.012
				c0,0,3.821,8.917,6.051,25.158c0,0-2.441,7.643-8.598,16.878c0,0-2.548,3.185-0.955,7.006l2.866,11.783l17.197,5.414
				l-29.298,9.872l2.548-4.458l6.369-10.509L123.421,159.892z"/>
			<polygon fill="#F4740B" points="125.969,139.511 119.068,138.907 114.659,144.25 113.1,137.501 106.656,134.958 112.594,131.39 
				113.021,124.476 118.249,129.02 124.956,127.289 122.25,133.666 			"/>
		</g>
	</g>
</g>
<g>
	<g>
		<ellipse fill="#FC9E15" cx="43.631" cy="413.212" rx="41.514" ry="14.336"/>
		<ellipse fill="#FC9E15" cx="43.631" cy="413.212" rx="41.514" ry="14.336"/>
		<rect x="2.117" y="404.651" fill="#FFAF14" width="83.028" height="8.96"/>
		<ellipse fill="#FFDD4D" cx="43.631" cy="404.651" rx="41.514" ry="14.336"/>
		<ellipse fill="#EB9406" cx="43.631" cy="404.651" rx="29.588" ry="10.217"/>
		<ellipse fill="#FAC902" cx="42.786" cy="404.943" rx="28.742" ry="9.925"/>
		<g>
			<path fill="#FFFFFF" d="M47.074,405.6l5.043-0.493c-0.288,0.502-0.789,0.907-1.489,1.311l1.075,3.427
				c3.294-1.171,5.017-2.879,5.296-5.216l2.302-0.225l-0.208-2.13l-2.238,0.219c-0.562-2.628-2.639-4.555-7.05-4.124
				c-2.705,0.264-4.752,1.765-6.348,5.434l-5.18,0.506c0.364-0.765,1.142-1.413,2.404-1.97l-1.116-3.482
				c-3.752,1.312-5.85,3.294-6.101,5.923l-2.27,0.222l0.208,2.13l2.238-0.219c0.765,3.006,3.541,4.47,7.083,4.123
				C43.761,410.74,45.626,409.453,47.074,405.6z M48.033,403.356c0.58-0.965,1.212-1.402,2.113-1.49
				c0.906-0.089,1.72,0.308,2.064,1.082L48.033,403.356z M38.252,406.462l4.242-0.415c-0.519,0.88-1.18,1.399-2.113,1.49
				C39.342,407.64,38.6,407.278,38.252,406.462z"/>
		</g>
	</g>
	<g>
		<ellipse fill="#FC9E15" cx="119.864" cy="404.706" rx="32.066" ry="11.073"/>
		<rect x="87.798" y="398.093" fill="#FFAF14" width="64.131" height="6.921"/>
		<ellipse fill="#FFDD4D" cx="119.864" cy="398.093" rx="32.066" ry="11.073"/>
		<ellipse fill="#EB9406" cx="119.864" cy="398.093" rx="22.854" ry="7.892"/>
		<ellipse fill="#FAC902" cx="119.211" cy="398.318" rx="22.201" ry="7.666"/>
		<g>
			<path fill="#FFFFFF" d="M122.524,398.826l3.895-0.381c-0.223,0.388-0.609,0.7-1.15,1.013l0.83,2.647
				c2.545-0.905,3.875-2.224,4.091-4.029l1.778-0.174l-0.161-1.645l-1.728,0.169c-0.434-2.03-2.039-3.519-5.446-3.185
				c-2.089,0.204-3.67,1.364-4.903,4.197l-4.001,0.391c0.281-0.591,0.882-1.091,1.857-1.522l-0.862-2.689
				c-2.898,1.013-4.518,2.544-4.712,4.575l-1.753,0.171l0.161,1.645l1.728-0.169c0.591,2.322,2.735,3.452,5.471,3.185
				C119.965,402.796,121.405,401.802,122.524,398.826z M123.264,397.093c0.448-0.745,0.936-1.083,1.632-1.151
				c0.699-0.068,1.329,0.238,1.594,0.836L123.264,397.093z M115.709,399.492l3.276-0.32c-0.401,0.68-0.911,1.081-1.632,1.151
				C116.551,400.401,115.978,400.122,115.709,399.492z"/>
		</g>
	</g>
	<g>
		<ellipse fill="#FC9E15" cx="77.998" cy="400.501" rx="41.514" ry="14.336"/>
		<rect x="36.484" y="391.94" fill="#FFAF14" width="83.028" height="8.96"/>
		<ellipse fill="#FFDD4D" cx="77.998" cy="391.94" rx="41.514" ry="14.336"/>
		<ellipse fill="#EB9406" cx="77.998" cy="391.94" rx="29.588" ry="10.217"/>
		<ellipse fill="#FAC902" cx="77.152" cy="392.232" rx="28.742" ry="9.925"/>
		<g>
			<path fill="#FFFFFF" d="M81.441,392.889l5.043-0.493c-0.288,0.502-0.789,0.907-1.489,1.311l1.075,3.427
				c3.294-1.171,5.017-2.879,5.296-5.216l2.302-0.225l-0.208-2.13l-2.238,0.219c-0.562-2.628-2.639-4.555-7.05-4.124
				c-2.705,0.264-4.752,1.765-6.348,5.434l-5.18,0.506c0.364-0.765,1.142-1.413,2.404-1.97l-1.116-3.482
				c-3.752,1.312-5.85,3.294-6.101,5.923l-2.27,0.222l0.208,2.13l2.238-0.219c0.765,3.006,3.541,4.47,7.083,4.123
				C78.128,398.029,79.993,396.742,81.441,392.889z M82.4,390.645c0.58-0.965,1.212-1.402,2.113-1.49
				c0.906-0.089,1.72,0.308,2.064,1.082L82.4,390.645z M72.619,393.752l4.242-0.415c-0.519,0.88-1.18,1.399-2.113,1.49
				C73.709,394.929,72.967,394.567,72.619,393.752z"/>
		</g>
	</g>
</g>
<g>
	<g>
		<g>
			<ellipse fill="#FC9E15" cx="303.093" cy="412.012" rx="24.643" ry="8.51"/>
			<rect x="278.45" y="406.93" fill="#FFAF14" width="49.287" height="5.319"/>
			<ellipse fill="#FFDD4D" cx="303.093" cy="406.93" rx="24.643" ry="8.51"/>
		</g>
		<g>
			<ellipse fill="#FC9E15" cx="303.093" cy="405.039" rx="24.643" ry="8.51"/>
			<rect x="278.45" y="399.956" fill="#FFAF14" width="49.287" height="5.319"/>
			<ellipse fill="#FFDD4D" cx="303.093" cy="399.956" rx="24.643" ry="8.51"/>
		</g>
		<g>
			<ellipse fill="#FC9E15" cx="299.902" cy="398.656" rx="24.643" ry="8.51"/>
			<rect x="275.258" y="393.574" fill="#FFAF14" width="49.287" height="5.319"/>
			<ellipse fill="#FFDD4D" cx="299.902" cy="393.574" rx="24.643" ry="8.51"/>
		</g>
		<g>
			<ellipse fill="#FC9E15" cx="303.802" cy="392.037" rx="24.643" ry="8.51"/>
			<rect x="279.159" y="386.955" fill="#FFAF14" width="49.287" height="5.319"/>
			<ellipse fill="#FFDD4D" cx="303.802" cy="386.955" rx="24.643" ry="8.51"/>
		</g>
		<g>
			<ellipse fill="#FC9E15" cx="304.282" cy="381.503" rx="24.643" ry="13.064"/>
			<rect x="279.638" y="373.701" fill="#FC9E15" width="49.287" height="8.165"/>
			<ellipse fill="#FFDD4D" cx="304.282" cy="373.701" rx="24.643" ry="13.064"/>
			<ellipse fill="#EB9406" cx="304.282" cy="373.701" rx="18.063" ry="9.575"/>
			<ellipse fill="#FAC902" cx="303.536" cy="374.447" rx="18.063" ry="9.575"/>
			<g>
				<path fill="#FFFFFF" d="M305.774,372.863l-0.024-2.132c0.428,0.136,0.751,0.359,1.058,0.665l3.177-0.346
					c-0.781-1.419-2.176-2.194-4.258-2.383l-0.011-0.973l-1.936,0.022l0.011,0.946c-2.414,0.155-4.324,0.968-4.302,2.833
					c0.013,1.143,1.195,2.049,4.367,2.831l0.025,2.19c-0.659-0.176-1.177-0.522-1.575-1.069l-3.23,0.362
					c0.87,1.615,2.481,2.556,4.828,2.742l0.011,0.96l1.936-0.022l-0.011-0.946c2.771-0.229,4.321-1.35,4.304-2.847
					C310.128,374.411,309.124,373.589,305.774,372.863z M303.832,372.392c-0.821-0.273-1.162-0.552-1.167-0.933
					c-0.004-0.383,0.421-0.713,1.147-0.833L303.832,372.392z M305.816,376.593l-0.021-1.793c0.75,0.245,1.162,0.538,1.167,0.933
					C306.968,376.171,306.58,376.471,305.816,376.593z"/>
			</g>
		</g>
	</g>
	<g>
		<g>
			<ellipse fill="#FC9E15" cx="331.202" cy="420.427" rx="15.259" ry="5.269"/>
			<rect x="315.943" y="417.279" fill="#FFAF14" width="30.519" height="3.293"/>
			<ellipse fill="#FFDD4D" cx="331.202" cy="417.279" rx="15.259" ry="5.269"/>
		</g>
		<g>
			<ellipse fill="#FC9E15" cx="331.202" cy="416.108" rx="15.259" ry="5.269"/>
			<rect x="315.943" y="412.961" fill="#FFAF14" width="30.519" height="3.293"/>
			<ellipse fill="#FFDD4D" cx="331.202" cy="412.961" rx="15.259" ry="5.269"/>
		</g>
		<g>
			<ellipse fill="#FC9E15" cx="329.227" cy="412.157" rx="15.259" ry="5.269"/>
			<rect x="313.967" y="409.009" fill="#FFAF14" width="30.519" height="3.293"/>
			<ellipse fill="#FFDD4D" cx="329.227" cy="409.009" rx="15.259" ry="5.269"/>
		</g>
		<g>
			<ellipse fill="#FC9E15" cx="331.642" cy="408.058" rx="15.259" ry="5.269"/>
			<rect x="316.382" y="404.911" fill="#FFAF14" width="30.519" height="3.293"/>
			<ellipse fill="#FFDD4D" cx="331.642" cy="404.911" rx="15.259" ry="5.269"/>
		</g>
		<g>
			<ellipse fill="#FC9E15" cx="339.029" cy="401.535" rx="15.259" ry="8.089"/>
			<rect x="323.77" y="396.704" fill="#FC9E15" width="30.519" height="5.056"/>
			<ellipse fill="#FFDD4D" cx="339.029" cy="396.704" rx="15.259" ry="8.089"/>
			<ellipse fill="#EB9406" cx="339.029" cy="396.704" rx="11.185" ry="5.929"/>
			<ellipse fill="#FAC902" cx="338.567" cy="397.166" rx="11.185" ry="5.929"/>
			<g>
				<path fill="#FFFFFF" d="M339.953,396.185l-0.015-1.32c0.265,0.084,0.465,0.222,0.655,0.412l1.967-0.214
					c-0.484-0.878-1.347-1.358-2.637-1.475l-0.007-0.603l-1.199,0.014l0.007,0.586c-1.495,0.096-2.677,0.6-2.664,1.754
					c0.008,0.708,0.74,1.268,2.704,1.753l0.016,1.356c-0.408-0.109-0.729-0.324-0.975-0.662l-2,0.224
					c0.538,1,1.536,1.583,2.99,1.698l0.007,0.594l1.199-0.014l-0.007-0.586c1.716-0.142,2.676-0.836,2.665-1.763
					C342.649,397.144,342.027,396.635,339.953,396.185z M338.75,395.894c-0.508-0.169-0.72-0.342-0.722-0.578
					c-0.003-0.237,0.26-0.441,0.71-0.516L338.75,395.894z M339.979,398.495l-0.013-1.11c0.464,0.152,0.72,0.333,0.722,0.578
					C340.692,398.234,340.452,398.42,339.979,398.495z"/>
			</g>
		</g>
	</g>
	<path fill="#FBCE00" d="M371.437,382.734c0,0-31.518,5.162-31.3,36.516c0.084,12.046,1.863,25.338,37.261,30.554
		c0,0,49.185,6.334,52.539-32.417c0,0,3.354-19.749-20.121-32.79c0,0,10.333-11.574,9.315-21.984
		c-0.955-9.763-17.869-13.073-37.261-12.296c0,0-36.737,3.1-28.691,16.022c1.875,3.011,3.726,4.099,12.296,7.08
		c0,0,4.844,5.589,7.08,7.08L371.437,382.734z"/>
	<g>
		<g>
			<path fill="#E85601" d="M359.385,414.374c0.048,2.039,0.705,3.6,2.003,4.776l3.445-7.126c-6.114-4.467-7.261-7.674-5.634-10.835
				c2.59-5.031,7.905-6.654,13.954-6.374l1.313-2.716l5.219,0.426l-1.37,2.931c5.846,1.342,9.161,4.507,9.628,9.868l-10.618-0.787
				c-0.414-1.171-0.995-2.057-1.99-2.708l-3.2,6.846c8.871,5.113,10.883,9.145,8.759,14.132c-2.549,5.984-9.578,8.274-17.925,5.475
				l-1.627,3.48l-4.893-2.397l1.614-3.339c-5.022-3.082-6.848-7.487-6.072-12.937L359.385,414.374z M367.769,405.953l2.593-5.363
				c-1.985,0.036-3.491,0.813-4.043,1.934C365.764,403.652,366.164,404.662,367.769,405.953z M369.122,415.123l-2.894,6.19
				c2.3,0.371,3.904-0.296,4.622-1.866C371.493,418.041,370.798,416.63,369.122,415.123z"/>
		</g>
	</g>
	<g>
		<path fill="#CB8100" d="M357.257,360.679c0,0,4.82-7.786,29.475-8.157c0,0,17.703-1.112,26.602,5.932c0,0,0.463,1.298-1.02,0.927
			c0,0,2.688,4.542-13.254,5.283c0,0-26.972,1.946-39.485-0.927C359.574,363.738,356.608,362.904,357.257,360.679z"/>
		<g>
			<defs>
				<path id="SVGID_3_" d="M357.257,360.679c0,0,4.82-7.786,29.475-8.157c0,0,17.703-1.112,26.602,5.932c0,0,0.463,1.298-1.02,0.927
					c0,0,2.688,4.542-13.254,5.283c0,0-26.972,1.946-39.485-0.927C359.574,363.738,356.608,362.904,357.257,360.679z"/>
			</defs>
			<clipPath id="SVGID_4_">
				<use xlink:href="#SVGID_3_"  overflow="visible"/>
			</clipPath>
			<path clip-path="url(#SVGID_4_)" fill="#E58E00" d="M357.257,361.606c0,0,4.82-7.786,29.475-8.157c0,0,17.703-1.112,26.602,5.932
				c0,0,0.463,1.298-1.02,0.927c0,0,2.688,4.542-13.254,5.283c0,0-26.972,1.946-39.485-0.927
				C359.574,364.665,356.608,363.831,357.257,361.606z"/>
		</g>
		<g>
			<defs>
				
					<ellipse id="SVGID_5_" transform="matrix(0.9946 -0.1038 0.1038 0.9946 -35.382 40.5118)" cx="371.717" cy="360.355" rx="15.942" ry="6.442"/>
			</defs>
			<clipPath id="SVGID_6_">
				<use xlink:href="#SVGID_5_"  overflow="visible"/>
			</clipPath>
			<path clip-path="url(#SVGID_6_)" fill="#F39801" d="M357.257,360.679c0,0,4.82-7.786,29.475-8.157c0,0,17.703-1.112,26.602,5.932
				c0,0,0.463,1.298-1.02,0.927c0,0,2.688,4.542-13.254,5.283c0,0-26.972,1.946-39.485-0.927
				C359.574,363.738,356.608,362.904,357.257,360.679z"/>
		</g>
	</g>
	<path fill="#FFFFFF" d="M368.751,353.978c0,0,10.381-2.873,16.591-2.225C385.342,351.753,378.908,349.847,368.751,353.978z"/>
	<path opacity="0.4" fill="#FFFFFF" d="M355.311,360.216c0,0-0.649,4.171,4.82,6.117c0,0-1.39,1.112-0.649,1.946
		c0,0-8.527-1.39-5.098-7.693C354.384,360.586,354.569,360.308,355.311,360.216z"/>
	<path opacity="0.5" fill="#FFFFFF" d="M361.892,366.704c0,0-1.483,1.483-0.649,2.966h2.132c0,0-0.371-1.946,0.927-2.688
		L361.892,366.704z"/>
	<path opacity="0.8" fill="#FFFFFF" d="M414.817,359.103c0,0,4.449,8.435-24.748,9.083c0,0,19.187,3.059,26.694-5.283
		C416.763,362.904,417.227,360.216,414.817,359.103z"/>
	<path fill="#ECC000" d="M365.476,373.419c0,0,13.378,2.647,24.315,1.905c0,0-11.846,5.177-9.9,8.792
		C379.891,384.116,371.439,382.002,365.476,373.419z"/>
	<path fill="#ECC000" d="M417.041,367.353c0,0-7.896,10.611-16.331,17.378c0,0,6.756-1.413,10.77-5.791
		C411.48,378.939,416.207,373.47,417.041,367.353z"/>
	<path fill="#EEC201" d="M408.699,392.608c0,0,12.855,28.691-8.011,43.223c0,0-21.984,9.874-39.311-2.236
		c0,0-5.576,12.008,1.504,12.94c0,0,41.743,14.697,62.237-13.249c0,0,17.675-28.195-9.339-42.541L408.699,392.608z"/>
	<path fill="#FFFFFF" d="M385.169,359.579c0,0-1.118,6.428-6.428,9.222c0,0,4.751,1.677,6.148,9.781c0,0,2.236-8.943,5.869-9.222
		C390.758,369.36,386.845,366.845,385.169,359.579z"/>
	<path fill="#FBCE00" d="M361.968,196.986c0,0-1.553,7.306-8.93,10.483c0,0,6.6,1.906,8.542,11.118c0,0,3.106-10.165,8.153-10.483
		C369.733,208.104,364.298,205.245,361.968,196.986z"/>
	<path fill="#FBCE00" d="M30.9,217.592c0,0-2.127,8.322-12.233,11.94c0,0,9.042,2.171,11.701,12.664c0,0,4.255-11.578,11.169-11.94
		C41.537,230.256,34.091,227,30.9,217.592z"/>
	<path fill="#FBCE00" d="M337.423,148c0,0-2.174,8.504-12.5,12.201c0,0,9.239,2.218,11.956,12.94c0,0,4.348-11.831,11.413-12.201
		C348.292,160.94,340.684,157.613,337.423,148z"/>
	<path fill="#FFFFFF" d="M396.459,370.685c0,0-0.707,4.065-4.065,5.832c0,0,3.004,1.06,3.888,6.185c0,0,1.414-5.655,3.711-5.832
		C399.994,376.87,397.52,375.28,396.459,370.685z"/>
	<g>
		<path fill="#ED5408" d="M372.736,380.144c0,0,7.322,9.083,30.958,3.429c0,0,8.527-6.396,12.791-4.264c0,0,4.82,2.225,0.927,10.381
			c0,0,17.518,6.766,21.967,22.523c0,0,0.649,9.732-3.244,13.533l-3.244-1.112l-1.761,3.986l-1.854-1.02l1.298-4.171l-5.654-3.8
			c0,0,7.693-16.499-8.805-28.455c0,0,11.123,12.606,0.371,18.723l-12.513-0.278c0,0,8.342-10.103,6.674-15.85
			c0,0-6.396-1.576-6.025-4.078c0,0-17.333,6.952-33.646-6.488C370.975,383.202,371.068,380.978,372.736,380.144z"/>
		<path fill="#D14D05" d="M409.626,388.578c0,0,10.917,10.557-0.299,21.124c0,0,5.094,1.042,8.524-0.07
			c0,0,10.969-8.384-5.352-20.961C412.5,388.671,409.997,387.744,409.626,388.578z"/>
	</g>
	<path fill="#D14D05" d="M406.238,381.967c0,0,9.599-2.286,8.672,8.373l0.742,0.649l1.39-0.463c0,0,21.04,9.176,15.85,34.109
		l3.427,1.351c0,0,7.752-11.68-0.521-22.057c-3.369-4.226-8.468-10.993-18.386-14.237c0,0,4.171-8.249-1.112-10.474
		c0,0-4.666-1.445-8.281,1.521L406.238,381.967z"/>
	<path fill="#D14D05" d="M371.354,381.905c0,0,12.944,11.385,35.375,4.897l-0.982,2.473c0,0-16.521,8.414-34.771-6.072
		L371.354,381.905z"/>
	<path fill="#A03702" d="M402.931,383.758c0,0,5.434,1.983,2.468,5.69c0,0,3.483,0.233,2.837-3.187
		c-0.245-1.297-2.481-2.736-4.542-2.688L402.931,383.758z"/>
	<path fill="#A03702" d="M413.311,389.216c0,0-3.853-2.688-4.148,1.309c-0.017,0.228,0.371,0.834,0.371,0.834
		s-3.377-4.629,1.668-3.893C411.826,387.557,413.311,388.381,413.311,389.216z"/>
	<path fill="#D04C04" d="M428.027,404.745c0,0,1.863,10.62-1.49,16.022l2.429,1.575
		C428.966,422.342,432.499,408.284,428.027,404.745z"/>
	<g>
		<circle fill="#FFDD4D" cx="335.961" cy="428.415" r="19.737"/>
		<circle fill="#EB9406" cx="335.961" cy="428.415" r="17.149"/>
		<g>
			<defs>
				<circle id="SVGID_7_" cx="335.314" cy="429.709" r="17.149"/>
			</defs>
			<clipPath id="SVGID_8_">
				<use xlink:href="#SVGID_7_"  overflow="visible"/>
			</clipPath>
			<circle clip-path="url(#SVGID_8_)" fill="#FAC902" cx="335.961" cy="428.415" r="17.149"/>
		</g>
		<g>
			<defs>
				<polygon id="SVGID_9_" points="347.285,407.06 312.988,443.946 326.254,454.947 362.493,413.855 				"/>
			</defs>
			<clipPath id="SVGID_10_">
				<use xlink:href="#SVGID_9_"  overflow="visible"/>
			</clipPath>
			<g clip-path="url(#SVGID_10_)">
				<defs>
					<circle id="SVGID_11_" cx="335.314" cy="429.709" r="17.149"/>
				</defs>
				<clipPath id="SVGID_12_">
					<use xlink:href="#SVGID_11_"  overflow="visible"/>
				</clipPath>
				<circle clip-path="url(#SVGID_12_)" fill="#FDDC59" cx="335.961" cy="428.415" r="17.149"/>
			</g>
		</g>
		<g>
			<path fill="#FFFFFF" d="M337.219,427.849l-0.044-3.848c0.644,0.248,1.131,0.65,1.592,1.204l4.775-0.614
				c-1.179-2.563-3.279-3.967-6.41-4.315l-0.02-1.756l-2.911,0.033l0.02,1.707c-3.629,0.272-6.497,1.733-6.459,5.098
				c0.024,2.064,1.804,3.702,6.576,5.124l0.045,3.952c-0.991-0.32-1.772-0.947-2.372-1.935l-4.855,0.642
				c1.313,2.918,3.739,4.622,7.269,4.966l0.02,1.732l2.911-0.033l-0.02-1.707c4.166-0.404,6.493-2.421,6.462-5.123
				C343.772,430.658,342.26,429.17,337.219,427.849z M334.298,426.992c-1.235-0.496-1.75-1-1.757-1.687
				c-0.008-0.691,0.63-1.285,1.721-1.5L334.298,426.992z M337.296,434.58l-0.037-3.237c1.128,0.445,1.749,0.975,1.757,1.687
				C339.026,433.823,338.444,434.364,337.296,434.58z"/>
		</g>
	</g>
	<g>
		<circle fill="#FFDD4D" cx="363.787" cy="442.31" r="19.737"/>
		<circle fill="#EB9406" cx="363.787" cy="442.31" r="17.149"/>
		<g>
			<defs>
				<circle id="SVGID_13_" cx="363.14" cy="443.605" r="17.149"/>
			</defs>
			<clipPath id="SVGID_14_">
				<use xlink:href="#SVGID_13_"  overflow="visible"/>
			</clipPath>
			<circle clip-path="url(#SVGID_14_)" fill="#FAC902" cx="363.787" cy="442.31" r="17.149"/>
		</g>
		<g>
			<defs>
				<polygon id="SVGID_15_" points="375.111,420.956 340.814,457.841 354.08,468.842 390.319,427.75 				"/>
			</defs>
			<clipPath id="SVGID_16_">
				<use xlink:href="#SVGID_15_"  overflow="visible"/>
			</clipPath>
			<g clip-path="url(#SVGID_16_)">
				<defs>
					<circle id="SVGID_17_" cx="363.14" cy="443.605" r="17.149"/>
				</defs>
				<clipPath id="SVGID_18_">
					<use xlink:href="#SVGID_17_"  overflow="visible"/>
				</clipPath>
				<circle clip-path="url(#SVGID_18_)" fill="#FDDC59" cx="363.787" cy="442.31" r="17.149"/>
			</g>
		</g>
	</g>
	<g>
		<path fill="#FFFFFF" d="M365.884,442.445l-0.044-3.848c0.644,0.248,1.131,0.65,1.592,1.204l4.775-0.614
			c-1.179-2.563-3.279-3.967-6.41-4.315l-0.02-1.756l-2.911,0.033l0.02,1.707c-3.629,0.272-6.497,1.733-6.459,5.098
			c0.024,2.064,1.804,3.701,6.576,5.124l0.045,3.952c-0.991-0.32-1.772-0.947-2.372-1.935l-4.855,0.642
			c1.313,2.918,3.739,4.622,7.269,4.966l0.02,1.732l2.911-0.033l-0.02-1.707c4.166-0.404,6.493-2.421,6.462-5.123
			C372.437,445.253,370.924,443.766,365.884,442.445z M362.963,441.588c-1.235-0.496-1.75-1-1.758-1.687
			c-0.008-0.691,0.63-1.285,1.721-1.5L362.963,441.588z M365.961,449.176l-0.037-3.236c1.128,0.445,1.749,0.975,1.757,1.687
			C367.691,448.419,367.109,448.96,365.961,449.176z"/>
	</g>
</g>
<g>
	<circle fill="#CF852A" cx="462.072" cy="155.971" r="34.192"/>
	<circle fill="#CF852A" cx="462.072" cy="155.971" r="34.192"/>
	<g>
		<defs>
			<rect id="SVGID_19_" x="417.446" y="120.228" width="87.56" height="35.391"/>
		</defs>
		<clipPath id="SVGID_20_">
			<use xlink:href="#SVGID_19_"  overflow="visible"/>
		</clipPath>
		<circle clip-path="url(#SVGID_20_)" fill="#FEDA7E" cx="462.072" cy="155.971" r="34.192"/>
	</g>
	<circle fill="#FFC740" cx="462.072" cy="155.971" r="32.077"/>
	<polygon fill="#CF8429" points="437.75,152.331 438.923,154.708 441.548,155.09 439.649,156.941 440.097,159.554 437.75,158.32 
		435.403,159.554 435.851,156.941 433.952,155.09 436.576,154.708 	"/>
	<polygon fill="#CF8429" points="486.535,152.331 487.709,154.708 490.333,155.09 488.434,156.941 488.882,159.554 486.535,158.32 
		484.188,159.554 484.637,156.941 482.738,155.09 485.362,154.708 	"/>
	<g>
		<defs>
			<polygon id="SVGID_21_" points="477.511,122.625 433.097,184.523 442.403,192.137 488.086,124.881 			"/>
		</defs>
		<clipPath id="SVGID_22_">
			<use xlink:href="#SVGID_21_"  overflow="visible"/>
		</clipPath>
		<circle opacity="0.3" clip-path="url(#SVGID_22_)" fill="#FFFFFF" cx="462.072" cy="155.971" r="34.192"/>
		<polygon opacity="0.2" clip-path="url(#SVGID_22_)" fill="#FFFFFF" points="470.603,118.113 426.188,180.011 430.418,183.818 
			476.806,118.113 		"/>
	</g>
	<g>
		<defs>
			<polygon id="SVGID_23_" points="471.934,119.336 430.154,176.599 433.18,179.043 476.241,120.12 			"/>
		</defs>
		<clipPath id="SVGID_24_">
			<use xlink:href="#SVGID_23_"  overflow="visible"/>
		</clipPath>
		<circle opacity="0.3" clip-path="url(#SVGID_24_)" fill="#FFFFFF" cx="462.072" cy="155.971" r="34.192"/>
	</g>
	<circle fill="#CF852A" cx="462.072" cy="155.971" r="19.891"/>
	<g>
		<defs>
			<rect id="SVGID_25_" x="445.848" y="156.134" width="32.712" height="17.554"/>
		</defs>
		<clipPath id="SVGID_26_">
			<use xlink:href="#SVGID_25_"  overflow="visible"/>
		</clipPath>
		<circle clip-path="url(#SVGID_26_)" fill="#FFDB7E" cx="462.134" cy="156.134" r="16.285"/>
	</g>
	<circle fill="#E5A224" cx="462.072" cy="155.971" r="17.652"/>
	<g>
		<path fill="#CC7F24" d="M475.874,147.473c-0.343-0.318-0.83-0.43-1.278-0.291l-6.434,1.985c-0.447,0.138-0.787,0.504-0.891,0.961
			c-0.104,0.456,0.043,0.934,0.386,1.252l1.605,1.489c-2.117,2.116-4.219,4.218-6.331,6.329c-0.054-0.05-0.134-0.12-0.21-0.195
			c-1.522-1.521-3.043-3.041-4.563-4.563c-0.704-0.705-1.2-0.709-1.896-0.013c-2.733,2.733-5.466,5.466-8.199,8.2
			c-0.1,0.1-0.205,0.199-0.288,0.312c-0.453,0.617-0.113,1.483,0.637,1.635c0.444,0.09,0.776-0.099,1.079-0.403
			c2.475-2.482,4.955-4.959,7.434-7.437c0.089-0.089,0.183-0.175,0.322-0.307c0.112,0.139,0.192,0.259,0.292,0.359
			c1.504,1.508,3.009,3.013,4.516,4.518c0.649,0.649,1.18,0.649,1.825,0.003c2.323-2.322,4.645-4.645,6.968-6.967l1.746,1.62
			c0,0,0.001,0.001,0.001,0.001c0.531,0.492,1.36,0.461,1.852-0.069c0.177-0.19,0.286-0.419,0.329-0.657l1.485-6.508
			C476.365,148.268,476.218,147.791,475.874,147.473z"/>
		<path fill="#FFCC57" d="M475.634,146.271c-0.343-0.318-0.83-0.43-1.278-0.291l-6.434,1.985c-0.447,0.138-0.787,0.504-0.891,0.961
			c-0.104,0.456,0.043,0.934,0.386,1.252l1.605,1.489c-2.117,2.116-4.219,4.218-6.331,6.329c-0.054-0.05-0.134-0.12-0.21-0.195
			c-1.522-1.521-3.043-3.041-4.563-4.563c-0.704-0.705-1.2-0.709-1.896-0.013c-2.733,2.733-5.466,5.466-8.199,8.2
			c-0.1,0.1-0.205,0.199-0.288,0.312c-0.453,0.617-0.113,1.483,0.637,1.635c0.444,0.09,0.776-0.099,1.079-0.403
			c2.475-2.482,4.955-4.959,7.434-7.437c0.089-0.089,0.183-0.175,0.322-0.307c0.112,0.139,0.192,0.259,0.292,0.359
			c1.504,1.508,3.009,3.013,4.516,4.518c0.649,0.649,1.18,0.649,1.825,0.003c2.323-2.322,4.645-4.645,6.968-6.967l1.746,1.62
			c0,0,0.001,0.001,0.001,0.001c0.531,0.492,1.36,0.461,1.852-0.069c0.177-0.19,0.286-0.419,0.329-0.657l1.485-6.508
			C476.124,147.066,475.977,146.589,475.634,146.271z"/>
	</g>
</g>
</svg>
