<?xml version="1.0" encoding="utf-8"?>
<!-- Generator: Adobe Illustrator 17.0.0, SVG Export Plug-In . SVG Version: 6.00 Build 0)  -->
<!DOCTYPE svg PUBLIC "-//W3C//DTD SVG 1.1//EN" "http://www.w3.org/Graphics/SVG/1.1/DTD/svg11.dtd">
<svg version="1.1" id="图层_3" xmlns="http://www.w3.org/2000/svg" xmlns:xlink="http://www.w3.org/1999/xlink" x="0px" y="0px"
	 width="642px" height="474px" viewBox="0 0 642 474" enable-background="new 0 0 642 474" xml:space="preserve">
<circle opacity="0.15" fill="#FDB21C" cx="433" cy="60.917" r="49.5"/>
<path fill="#FFFFFF" d="M460.515,49.968l-22.81-22.81c-0.156-0.156-0.321-0.304-0.492-0.445c-0.072-0.059-0.147-0.11-0.22-0.165
	c-0.1-0.075-0.198-0.152-0.302-0.222c-0.092-0.061-0.187-0.114-0.281-0.17c-0.092-0.055-0.182-0.113-0.277-0.164
	c-0.096-0.052-0.195-0.095-0.294-0.142c-0.098-0.047-0.195-0.096-0.296-0.137c-0.096-0.04-0.195-0.072-0.292-0.107
	c-0.107-0.039-0.212-0.079-0.321-0.112c-0.099-0.03-0.199-0.052-0.299-0.077c-0.11-0.028-0.219-0.059-0.332-0.081
	c-0.115-0.023-0.232-0.036-0.348-0.053c-0.099-0.014-0.196-0.033-0.296-0.043c-0.217-0.021-0.435-0.033-0.653-0.033
	c0,0-0.002,0-0.002,0h0c-0.219,0-0.438,0.012-0.656,0.033c-0.098,0.01-0.194,0.028-0.291,0.042
	c-0.118,0.017-0.236,0.031-0.352,0.054c-0.111,0.022-0.218,0.052-0.326,0.08c-0.102,0.026-0.204,0.048-0.304,0.078
	c-0.107,0.032-0.211,0.073-0.315,0.11c-0.1,0.036-0.2,0.069-0.299,0.109c-0.098,0.041-0.192,0.088-0.287,0.133
	c-0.101,0.048-0.203,0.093-0.302,0.146c-0.091,0.049-0.178,0.104-0.266,0.157c-0.098,0.058-0.196,0.113-0.292,0.177
	c-0.098,0.066-0.19,0.138-0.284,0.209c-0.079,0.059-0.161,0.114-0.238,0.178c-0.169,0.139-0.332,0.286-0.487,0.44l0,0
	l-22.813,22.813c-2.597,2.597-2.597,6.807,0,9.403c2.597,2.597,6.807,2.597,9.403,0l11.462-11.462v42.068
	c0,3.672,2.977,6.649,6.649,6.649s6.649-2.977,6.649-6.649V47.91l11.462,11.462c2.597,2.597,6.807,2.597,9.403,0
	C463.111,56.775,463.111,52.565,460.515,49.968z"/>
<circle opacity="0.15" fill="#3FB7F6" cx="59.5" cy="270.917" r="55.5"/>
<path fill="#FFFFFF" d="M90.35,258.641l-25.575-25.575c-0.175-0.175-0.359-0.341-0.551-0.498c-0.08-0.066-0.165-0.123-0.247-0.185
	c-0.112-0.084-0.222-0.171-0.338-0.249c-0.103-0.069-0.209-0.128-0.315-0.191c-0.103-0.062-0.205-0.127-0.311-0.184
	c-0.108-0.058-0.219-0.107-0.329-0.159c-0.11-0.052-0.219-0.107-0.332-0.154c-0.108-0.045-0.218-0.081-0.328-0.12
	c-0.12-0.043-0.238-0.089-0.36-0.126c-0.111-0.033-0.223-0.058-0.335-0.086c-0.124-0.031-0.246-0.066-0.372-0.091
	c-0.129-0.026-0.26-0.041-0.39-0.06c-0.111-0.016-0.22-0.037-0.332-0.048c-0.243-0.024-0.488-0.037-0.732-0.037
	c-0.001,0-0.002,0-0.003,0h0c-0.246,0-0.491,0.013-0.735,0.037c-0.11,0.011-0.218,0.032-0.327,0.047
	c-0.132,0.019-0.264,0.034-0.395,0.06c-0.124,0.025-0.244,0.059-0.366,0.089c-0.114,0.029-0.229,0.054-0.341,0.088
	c-0.12,0.036-0.236,0.081-0.354,0.124c-0.112,0.04-0.225,0.077-0.335,0.123c-0.11,0.046-0.215,0.099-0.322,0.15
	c-0.114,0.053-0.228,0.104-0.339,0.163c-0.102,0.055-0.199,0.117-0.299,0.176c-0.11,0.065-0.22,0.127-0.327,0.199
	c-0.11,0.073-0.213,0.155-0.319,0.234c-0.089,0.067-0.18,0.128-0.267,0.199c-0.19,0.156-0.373,0.32-0.546,0.494l0,0L28.65,258.641
	c-2.912,2.911-2.912,7.632,0,10.543c2.912,2.912,7.632,2.912,10.543,0l12.851-12.851V303.5c0,4.118,3.338,7.455,7.455,7.455
	s7.455-3.338,7.455-7.455v-47.167l12.851,12.851c2.912,2.911,7.632,2.911,10.543,0C93.261,266.273,93.261,261.553,90.35,258.641z"/>
<ellipse fill="#EFEFEF" cx="328" cy="388" rx="201" ry="34.5"/>
<g>
	<polygon fill="#FFBE57" points="423.361,93.847 224.13,93.847 228.121,90.81 428.664,90.81 	"/>
	<rect x="224.13" y="158.686" fill="#FFFFFF" width="199.232" height="143.008"/>
	<polygon fill="#ECECEC" points="428.626,296.276 423.361,301.693 423.361,158.686 428.626,158.686 	"/>
	<polygon fill="#E09A1E" points="428.626,158.664 423.361,159.879 423.361,93.774 428.626,90.81 	"/>
	<rect x="244.208" y="208.93" fill="#ECECEC" width="140.453" height="8.642"/>
	<rect x="244.208" y="180.584" fill="#ECECEC" width="61.894" height="14.311"/>
	<rect x="322.362" y="180.584" fill="#ECECEC" width="61.894" height="14.311"/>
	<rect x="244.208" y="231.807" fill="#ECECEC" width="164.2" height="8.642"/>
	<rect x="244.208" y="254.683" fill="#ECECEC" width="164.2" height="37.619"/>
	<rect x="224.13" y="93.774" fill="#FDB21C" width="199.232" height="66.208"/>
	<path opacity="0.3" fill="#FFFFFF" d="M279.569,151.13c0,1.887-1.088,3.417-2.43,3.417h-37.66c-1.342,0-2.43-1.53-2.43-3.417
		v-7.745c0-1.887,1.088-3.417,2.43-3.417h37.66c1.342,0,2.43,1.53,2.43,3.417V151.13z"/>
	<path opacity="0.3" fill="#FFFFFF" d="M341.93,151.13c0,1.887-1.088,3.417-2.43,3.417h-37.66c-1.342,0-2.43-1.53-2.43-3.417v-7.745
		c0-1.887,1.088-3.417,2.43-3.417h37.66c1.342,0,2.43,1.53,2.43,3.417V151.13z"/>
	<path opacity="0.3" fill="#FFFFFF" d="M404.696,151.13c0,1.887-1.088,3.417-2.43,3.417h-37.66c-1.342,0-2.43-1.53-2.43-3.417
		v-7.745c0-1.887,1.088-3.417,2.43-3.417h37.66c1.342,0,2.43,1.53,2.43,3.417V151.13z"/>
</g>
<g>
	<polygon fill="#4D9EFF" points="431.229,114.454 215.831,114.454 220.146,111.171 436.962,111.171 	"/>
	<rect x="215.831" y="184.554" fill="#FFFFFF" width="215.398" height="154.612"/>
	<polygon fill="#ECECEC" points="436.921,333.31 431.23,339.166 431.23,184.554 436.921,184.554 	"/>
	<polygon fill="#1161BF" points="436.921,184.531 431.23,185.845 431.23,114.375 436.921,111.171 	"/>
	<rect x="237.539" y="238.876" fill="#ECECEC" width="151.85" height="9.343"/>
	<rect x="237.539" y="208.23" fill="#ECECEC" width="66.917" height="15.473"/>
	<rect x="322.034" y="208.23" fill="#ECECEC" width="66.917" height="15.473"/>
	<rect x="237.539" y="263.609" fill="#ECECEC" width="177.524" height="9.343"/>
	<rect x="237.539" y="288.341" fill="#ECECEC" width="177.524" height="40.671"/>
	<rect x="215.831" y="114.375" fill="#1F6FE5" width="215.398" height="71.581"/>
	<path opacity="0.3" fill="#FFFFFF" d="M275.769,176.385c0,2.04-1.176,3.694-2.627,3.694h-40.716c-1.451,0-2.627-1.654-2.627-3.694
		v-8.373c0-2.04,1.176-3.694,2.627-3.694h40.716c1.451,0,2.627,1.654,2.627,3.694V176.385z"/>
	<path opacity="0.3" fill="#FFFFFF" d="M343.191,176.385c0,2.04-1.176,3.694-2.627,3.694h-40.716c-1.451,0-2.627-1.654-2.627-3.694
		v-8.373c0-2.04,1.176-3.694,2.627-3.694h40.716c1.451,0,2.627,1.654,2.627,3.694V176.385z"/>
	<path opacity="0.3" fill="#FFFFFF" d="M411.05,176.385c0,2.04-1.176,3.694-2.627,3.694h-40.716c-1.451,0-2.627-1.654-2.627-3.694
		v-8.373c0-2.04,1.176-3.694,2.627-3.694h40.716c1.451,0,2.627,1.654,2.627,3.694V176.385z"/>
</g>
<g>
	<polygon fill="#FF669D" points="444.956,138.513 201.354,138.513 206.233,134.799 451.44,134.799 	"/>
	<rect x="201.354" y="217.792" fill="#FFFFFF" width="243.603" height="174.857"/>
	<polygon fill="#ECECEC" points="451.393,386.026 444.907,392.649 444.928,217.821 451.393,217.792 	"/>
	<polygon fill="#D3246C" points="451.393,217.766 444.956,219.252 444.956,138.424 451.393,134.799 	"/>
	<rect x="201.354" y="138.424" fill="#FF3B78" width="243.603" height="80.953"/>
</g>
<path fill="#FFFFFF" d="M320.542,390.455"/>
<path opacity="0.5" fill="#FFFFFF" d="M320.542,390.455"/>
<path fill="#CE2167" d="M241.681,194.491c-0.851,0.396-1.702,0.793-3.126,1.457c-2.487-6.387-4.934-12.669-7.657-19.663
	c6.087,0.93,12.364-2.238,16.012,4.662c0.834-3.535-0.293-6.199-3.868-9.352c-3.418,3.226-5.692,2.731-6.999-1.548
	c-3.6-0.175-7.236-0.136-10.812-0.577c-5.115-0.631-8.447-3.744-10.222-8.493c-1.807-4.835-0.639-9.12,2.502-12.979
	c0,1.819-0.265,3.626,0.052,5.325c0.786,4.215,4.084,6.792,8.397,6.795c18.3,0.013,36.6,0.008,54.9,0.004
	c6.685-0.001,10.403-4.715,8.878-11.244c-0.066-0.283-0.155-0.56-0.289-1.036c4.677,4.123,5.066,12.063,0.975,16.888
	c-2.621,3.092-5.795,5.01-10.039,4.842c-2.954-0.117-5.916-0.022-8.746-0.022c-1.811,4.787-4.186,5.393-7.09,1.959
	c-3.103,2.328-4.653,5.326-4.307,9.823c1.736-2.917,3.7-4.847,6.849-4.87c2.879-0.021,5.758-0.004,9.371-0.004
	c-2.568,6.653-4.989,12.927-7.497,19.425c-1.399-0.595-2.308-0.981-3.217-1.367c-0.094,0.08-0.189,0.16-0.283,0.24
	c0.602,0.7,1.123,1.497,1.821,2.083c2.804,2.357,3.42,5.317,2.342,8.648c-1.109,3.427-3.933,5.513-7.618,5.576
	c-5.521,0.094-11.047,0.094-16.568,0c-3.686-0.063-6.508-2.149-7.617-5.577c-1.078-3.331-0.463-6.293,2.343-8.647
	c0.671-0.563,1.173-1.329,1.753-2.002C241.841,194.721,241.761,194.606,241.681,194.491z M253.799,203.74
	c2.357,0.593,4.691,1.363,7.085,1.697c1.024,0.143,2.527-0.32,3.161-1.064c0.543-0.636,0.569-2.361,0.067-3.061
	c-0.51-0.71-1.954-1.038-2.975-1.012c-0.992,0.026-2.011,0.631-2.942,1.124c-2.982,1.58-5.925,1.608-8.902,0.01
	c-0.717-0.385-1.498-0.944-2.24-0.928c-1.273,0.026-2.764,0.13-3.716,0.819c-0.505,0.366-0.417,2.208,0.021,3.07
	c0.716,1.41,2.122,1.44,3.651,0.972C249.177,204.705,251.423,204.296,253.799,203.74z"/>
<path fill="#E0286A" d="M366.126,174.509c0,2.531-1.026,4.584-2.292,4.584h-56.435c-1.266,0-2.292-2.052-2.292-4.584v-5.729
	c0-2.531,1.026-4.584,2.292-4.584h56.435c1.266,0,2.292,2.052,2.292,4.584V174.509z"/>
<path fill="#E0286A" d="M386.512,203.426c0,2.531-1.369,4.584-3.057,4.584h-75.29c-1.689,0-3.057-2.052-3.057-4.584v-5.729
	c0-2.531,1.369-4.584,3.057-4.584h75.29c1.689,0,3.057,2.052,3.057,4.584V203.426z"/>
<g>
	<path fill="#DADADA" d="M302.565,272.966c0.502,0.314,0.866,0.52,1.204,0.755c6.13,4.263,12.256,8.53,18.384,12.795
		c7.585,5.279,15.163,10.567,22.763,15.83c2.587,1.791,5.389,1.579,7.627-0.504c0.337-0.314,0.657-0.642,0.983-0.965
		c14.835-14.66,29.67-29.32,44.509-43.977c0.292-0.289,0.639-0.536,1.033-0.864c0.067,0.23,0.092,0.275,0.092,0.32
		c0.011,4.919,0.008,9.838,0.033,14.757c0.014,2.823,2.197,4.871,5.18,4.908c3.061,0.038,5.346-2.028,5.351-4.907
		c0.015-8.979,0.017-17.959-0.001-26.938c-0.006-2.942-2.191-4.838-5.574-4.843c-10.265-0.015-20.529-0.014-30.794-0.001
		c-3.473,0.004-5.828,1.925-5.789,4.657c0.038,2.65,2.405,4.503,5.798,4.509c5.764,0.01,11.527,0.003,17.291,0.004
		c0.498,0,0.996,0,1.837,0c-15.08,14.895-29.862,29.495-44.654,44.105c-0.51-0.341-0.817-0.539-1.116-0.747
		c-13.414-9.335-26.825-18.673-40.241-28.005c-3.262-2.269-5.514-2.185-8.546,0.298c-16.708,13.683-33.416,27.366-50.123,41.049
		c-1.679,1.375-3.372,2.737-5.031,4.129c-1.501,1.259-2.086,2.79-1.523,4.565c1.127,3.547,5.784,4.508,9.031,1.854
		c12.881-10.531,25.75-21.073,38.623-31.611C293.43,280.442,297.946,276.747,302.565,272.966z"/>
	<path fill="#DADADA" d="M378.1,335.657c0.002,0,0.004,0,0.006,0c0,11.936-0.001,23.872,0.001,35.808
		c0.001,3.737,1.951,5.453,6.196,5.455c6.42,0.003,12.84,0.002,19.26,0c4.157-0.001,6.168-1.74,6.168-5.341
		c0.002-23.968,0.002-47.936,0-71.905c0-3.522-2.026-5.309-6.038-5.313c-6.53-0.007-13.059-0.001-19.589-0.002
		c-3.906,0-6.004,1.816-6.004,5.202C378.1,311.593,378.1,323.625,378.1,335.657z"/>
	<path fill="#DADADA" d="M286.765,342.507c0,9.786-0.005,19.573,0.003,29.359c0.003,3.242,2.08,5.046,5.813,5.052
		c6.638,0.009,13.277,0.008,19.915,0.001c3.711-0.004,5.884-1.822,5.887-5.022c0.017-19.573,0.016-39.146,0.001-58.719
		c-0.003-3.221-2.157-5.047-5.854-5.051c-6.529-0.008-13.058-0.003-19.586-0.002c-4.199,0.001-6.173,1.689-6.175,5.31
		C286.762,323.125,286.766,332.816,286.765,342.507z"/>
	<path fill="#DADADA" d="M364.02,349.395c0-7.542,0.018-15.083-0.009-22.625c-0.011-3.054-2.165-4.884-5.667-4.889
		c-6.638-0.009-13.275-0.01-19.913,0c-3.992,0.006-6.039,1.805-6.041,5.332c-0.007,14.845-0.004,29.689,0.007,44.534
		c0.002,3.363,2.131,5.169,6.051,5.172c6.473,0.005,12.946,0.003,19.419,0.001c4.186-0.002,6.148-1.695,6.152-5.33
		C364.026,364.192,364.021,356.793,364.02,349.395z"/>
	<path fill="#DADADA" d="M241.061,356.208c0,5.155-0.003,10.309,0.001,15.464c0.003,3.438,2.038,5.242,5.939,5.247
		c6.637,0.008,13.274,0.008,19.911,0c3.595-0.004,5.769-1.866,5.772-4.96c0.009-10.405,0.008-20.809,0-31.214
		c-0.002-3.29-2.114-5.098-5.938-5.101c-6.582-0.006-13.164-0.006-19.746,0c-3.906,0.003-5.934,1.797-5.937,5.243
		C241.057,345.994,241.061,351.101,241.061,356.208z"/>
</g>
<path fill="#E0286A" d="M412.813,160.259c0.305-0.52,0.578-1.015,0.879-1.491c2.032-3.21,5.287-4.761,8.658-4.134
	c3.067,0.57,5.556,3.372,6.299,6.956c0.903,4.356-0.354,7.856-4.003,10.436c-1.335,0.943-2.722,1.812-4.089,2.709
	c-3.065,2.011-5.719,4.44-7.78,7.648c-0.472-0.66-0.831-1.38-1.383-1.893c-1.934-1.796-3.869-3.603-5.931-5.245
	c-1.479-1.178-3.209-2.035-4.747-3.147c-5.328-3.854-4.9-9.486-2.723-13.583c2.548-4.797,8.345-5.583,12.179-1.726
	C411.153,157.774,411.878,159.013,412.813,160.259z"/>
<circle opacity="0.15" fill="#FF7647" cx="574.5" cy="397.917" r="64.5"/>
<path fill="#FFFFFF" d="M610.352,383.65l-29.722-29.722c-0.203-0.204-0.418-0.397-0.64-0.579c-0.093-0.077-0.192-0.143-0.287-0.215
	c-0.13-0.098-0.258-0.198-0.393-0.289c-0.119-0.08-0.243-0.149-0.366-0.222c-0.12-0.072-0.238-0.147-0.361-0.214
	c-0.126-0.067-0.255-0.124-0.383-0.184c-0.128-0.061-0.254-0.124-0.386-0.179c-0.125-0.052-0.254-0.094-0.381-0.139
	c-0.139-0.05-0.277-0.103-0.419-0.147c-0.129-0.039-0.26-0.067-0.39-0.1c-0.144-0.036-0.286-0.077-0.432-0.106
	c-0.15-0.03-0.302-0.047-0.453-0.069c-0.129-0.019-0.255-0.043-0.386-0.056c-0.283-0.028-0.567-0.043-0.851-0.043
	c-0.001,0-0.002,0-0.003,0h0c-0.285,0-0.57,0.015-0.855,0.043c-0.128,0.013-0.253,0.037-0.38,0.055
	c-0.153,0.022-0.307,0.04-0.459,0.07c-0.144,0.029-0.284,0.068-0.425,0.104c-0.132,0.033-0.266,0.062-0.397,0.102
	c-0.14,0.042-0.274,0.095-0.411,0.144c-0.13,0.047-0.261,0.089-0.389,0.142c-0.128,0.053-0.25,0.115-0.375,0.174
	c-0.132,0.062-0.265,0.121-0.394,0.19c-0.119,0.064-0.232,0.136-0.347,0.205c-0.127,0.076-0.256,0.148-0.38,0.231
	c-0.128,0.085-0.248,0.18-0.37,0.272c-0.103,0.077-0.209,0.149-0.31,0.232c-0.221,0.181-0.433,0.372-0.635,0.574l0,0l-29.726,29.726
	c-3.384,3.384-3.384,8.869,0,12.253c3.384,3.384,8.869,3.384,12.253,0l14.935-14.935v54.816c0,4.785,3.879,8.664,8.664,8.664
	s8.664-3.879,8.664-8.664v-54.815l14.935,14.935c3.384,3.384,8.869,3.384,12.253,0C613.736,392.52,613.736,387.034,610.352,383.65z"
	/>
</svg>
