<?xml version="1.0" encoding="utf-8"?>
<!-- Generator: Adobe Illustrator 17.0.0, SVG Export Plug-In . SVG Version: 6.00 Build 0)  -->
<!DOCTYPE svg PUBLIC "-//W3C//DTD SVG 1.1//EN" "http://www.w3.org/Graphics/SVG/1.1/DTD/svg11.dtd">
<svg version="1.1" id="隔离模式" xmlns="http://www.w3.org/2000/svg" xmlns:xlink="http://www.w3.org/1999/xlink" x="0px"
	 y="0px" width="680px" height="518px" viewBox="0 0 680 518" enable-background="new 0 0 680 518" xml:space="preserve">
<g>
	<polygon fill="#CA6D27" points="154.504,418.102 196.876,455.622 201.08,448.83 179.733,428.453 	"/>
	<polygon fill="#B86124" points="177.792,427.159 200.487,449.919 228.897,462.738 186.849,427.482 	"/>
	<polygon fill="#D9772D" points="237.457,429.362 237.63,456.916 228.897,462.738 	"/>
	<polygon fill="#E48639" points="239.247,431.04 228.897,462.738 184.585,429.099 189.76,419.719 	"/>
	<polygon fill="#F99B46" points="291.913,439.608 298.705,466.454 325.875,500.092 319.083,423.436 	"/>
	<polygon fill="#DF8134" points="237.306,438.479 237.63,456.916 278.061,473.735 290.999,430.07 244.099,428.453 	"/>
	<polygon fill="#EC913F" points="314.321,439.361 299.085,466.619 278.061,473.735 290.999,430.07 	"/>
	<polygon fill="#E68434" points="325.875,500.092 364.098,460.474 367.762,418.048 318.317,419.596 	"/>
	<polygon fill="#DA722A" points="364.098,460.474 371.213,466.296 371.537,433.304 366.685,423.601 	"/>
	<polygon fill="#EB903E" points="402.588,427.159 402.264,451.094 371.213,466.296 371.213,426.512 	"/>
	<polygon fill="#DB792E" points="406.469,431.364 412.291,453.034 402.264,451.094 401.727,426.335 	"/>
	<polygon fill="#EA8E3D" points="450.781,419.719 440.431,437.186 412.291,453.034 406.469,431.364 442.695,412.927 	"/>
	<path fill="#AB8F00" d="M302.643,382.2c-83.958,0-152.02,13.685-152.02,30.566c0,16.881,68.062,30.566,152.02,30.566
		c3.929,0,7.824-0.03,11.678-0.089c0.352-3.558,5.191-6.38,11.125-6.38c5.556,0,10.15,2.474,11.004,5.709
		c67.686-3.091,118.213-15.261,118.213-29.806C454.663,395.884,386.601,382.2,302.643,382.2z"/>
	<path fill="#B4CA1B" d="M302.643,378.318c-83.958,0-152.02,13.685-152.02,30.566c0,16.881,68.062,30.566,152.02,30.566
		c3.929,0,7.824-0.03,11.678-0.089c0.352-3.558,5.191-6.38,11.125-6.38c5.556,0,10.15,2.474,11.004,5.709
		c67.686-3.091,118.213-15.261,118.213-29.806C454.663,392.003,386.601,378.318,302.643,378.318z"/>
	<ellipse fill="#D97229" cx="331.482" cy="463.612" rx="2.75" ry="4.75"/>
	
		<ellipse transform="matrix(0.6117 0.7911 -0.7911 0.6117 512.1372 -159.0357)" fill="#D97229" cx="418.062" cy="442.145" rx="2.171" ry="3.75"/>
	
		<ellipse transform="matrix(0.1602 0.9871 -0.9871 0.1602 631.5266 151.7263)" fill="#D97229" cx="226.596" cy="447.001" rx="1.483" ry="2.562"/>
	<ellipse opacity="0.5" fill="#5FAA09" cx="203.215" cy="401.582" rx="6.606" ry="1.802"/>
	<ellipse opacity="0.66" fill="#5FAA09" cx="316.623" cy="414.192" rx="10.321" ry="2.815"/>
	<ellipse opacity="0.3" fill="#5FAA09" cx="395.533" cy="396.978" rx="5.161" ry="1.407"/>
	<ellipse opacity="0.3" fill="#5FAA09" cx="248.453" cy="423.6" rx="5.161" ry="1.407"/>
</g>
<g>
	<path fill="#FFEDAD" d="M304.879,159.136c1.608,0,2.911,1.303,2.911,2.911v232.545c0,1.608-1.303,2.911-2.911,2.911h-6.306
		c-1.608,0-2.911-1.303-2.911-2.911V162.047c0-1.608,1.303-2.911,2.911-2.911H304.879z"/>
	<path fill="#FEBC6F" d="M304.879,398.23h-6.306c-2.006,0-3.639-1.632-3.639-3.638V162.047c0-2.006,1.633-3.638,3.639-3.638h6.306
		c2.006,0,3.639,1.632,3.639,3.638v232.545C308.518,396.598,306.885,398.23,304.879,398.23z M298.573,159.864
		c-1.204,0-2.183,0.979-2.183,2.183v232.545c0,1.203,0.979,2.183,2.183,2.183h6.306c1.204,0,2.183-0.979,2.183-2.183V162.047
		c0-1.204-0.979-2.183-2.183-2.183H298.573z"/>
</g>
<g>
	<path fill="#FFEDAD" d="M266.86,321.527c1.392,0.804,1.869,2.584,1.065,3.976l-40.264,69.74c-0.804,1.392-2.584,1.869-3.976,1.065
		l-5.462-3.153c-1.392-0.804-1.869-2.584-1.065-3.976l40.264-69.74c0.804-1.392,2.584-1.869,3.976-1.065L266.86,321.527z"/>
	<path fill="#FEBC6F" d="M225.138,397.426c-0.636,0-1.264-0.168-1.817-0.488l-5.461-3.153c-0.842-0.486-1.444-1.271-1.696-2.21
		c-0.252-0.939-0.122-1.919,0.364-2.761l40.264-69.74c0.648-1.122,1.857-1.82,3.154-1.82c0.636,0,1.264,0.168,1.817,0.488
		l5.462,3.153c1.737,1.004,2.334,3.233,1.332,4.97l-40.264,69.74C227.644,396.729,226.435,397.426,225.138,397.426z
		 M259.946,318.712c-0.779,0-1.504,0.418-1.893,1.092l-40.264,69.74c-0.292,0.505-0.369,1.093-0.218,1.656
		c0.151,0.564,0.512,1.034,1.017,1.326l5.461,3.153c0.332,0.192,0.708,0.293,1.089,0.293c0.779,0,1.504-0.418,1.893-1.092
		l40.264-69.74c0.602-1.042,0.243-2.38-0.799-2.982l-5.462-3.153C260.703,318.813,260.326,318.712,259.946,318.712z"/>
</g>
<g>
	<g>
		<rect x="186.026" y="192.224" fill="#FFFFCB" width="235.279" height="131.95"/>
		<path fill="#FEBC6F" d="M422.034,324.903H185.299V191.497h236.735V324.903z M186.754,323.447h233.824V192.952H186.754V323.447z"/>
	</g>
	<g>
		<path fill="#FFEDAD" d="M435.616,192.709c0,1.608-1.303,2.911-2.911,2.911H174.626c-1.608,0-2.911-1.303-2.911-2.911v-6.306
			c0-1.608,1.303-2.911,2.911-2.911h258.079c1.608,0,2.911,1.303,2.911,2.911V192.709z"/>
		<path fill="#FEBC6F" d="M432.706,196.348h-258.08c-2.006,0-3.638-1.632-3.638-3.638v-6.307c0-2.006,1.632-3.638,3.638-3.638
			h258.08c2.007,0,3.638,1.632,3.638,3.638v6.307C436.344,194.716,434.712,196.348,432.706,196.348z M174.626,184.22
			c-1.204,0-2.183,0.979-2.183,2.183v6.307c0,1.204,0.979,2.183,2.183,2.183h258.08c1.203,0,2.183-0.979,2.183-2.183v-6.307
			c0-1.204-0.979-2.183-2.183-2.183H174.626z"/>
	</g>
	<g>
		<path fill="#FFEDAD" d="M435.616,329.026c0,1.608-1.303,2.911-2.911,2.911H174.626c-1.608,0-2.911-1.303-2.911-2.911v-6.306
			c0-1.608,1.303-2.911,2.911-2.911h258.079c1.608,0,2.911,1.303,2.911,2.911V329.026z"/>
		<path fill="#FEBC6F" d="M432.706,332.664h-258.08c-2.006,0-3.638-1.632-3.638-3.638v-6.307c0-2.006,1.632-3.638,3.638-3.638
			h258.08c2.007,0,3.638,1.632,3.638,3.638v6.307C436.344,331.032,434.712,332.664,432.706,332.664z M174.626,320.536
			c-1.204,0-2.183,0.979-2.183,2.183v6.307c0,1.203,0.979,2.183,2.183,2.183h258.08c1.203,0,2.183-0.979,2.183-2.183v-6.307
			c0-1.203-0.979-2.183-2.183-2.183H174.626z"/>
	</g>
</g>
<g>
	<rect x="198.506" y="208.068" fill="#FEBC6F" width="1.455" height="99.448"/>
	<rect x="198.506" y="306.061" fill="#FEBC6F" width="190.892" height="1.455"/>
</g>
<rect x="199.346" y="224.331" opacity="0.5" fill="#F5F5C3" width="206.398" height="82.75"/>
<g>
	<rect x="198.994" y="253.68" fill="#F7F7A9" width="206.761" height="0.728"/>
	<rect x="198.994" y="268.287" fill="#F7F7A9" width="206.761" height="0.728"/>
	<rect x="198.994" y="224.507" fill="#F7F7A9" width="206.761" height="0.728"/>
	<rect x="198.994" y="240.098" fill="#F7F7A9" width="206.761" height="0.728"/>
	<rect x="198.994" y="297.479" fill="#F7F7A9" width="206.761" height="0.728"/>
	<rect x="198.994" y="282.894" fill="#F7F7A9" width="206.761" height="0.728"/>
</g>
<g>
	<path fill="#FFBB6F" d="M199.313,307.694c-0.164,0-0.33-0.037-0.486-0.114c-0.539-0.269-0.759-0.925-0.49-1.464l27.719-55.644
		c0.155-0.312,0.45-0.531,0.794-0.589c0.342-0.06,0.694,0.05,0.944,0.293l26.561,25.798l1.37,1.512l27.13-56.863
		c0.179-0.374,0.554-0.615,0.968-0.622c0.415-0.002,0.797,0.222,0.987,0.591l29.139,56.433l27.885-55.154
		c0.183-0.361,0.551-0.592,0.956-0.599c0.412,0.011,0.78,0.211,0.975,0.566l13.268,24.167l13.028-24.159
		c0.189-0.35,0.553-0.57,0.95-0.574c0.396,0.029,0.766,0.209,0.962,0.555l15.097,26.745l13.082-28.068
		c0.254-0.546,0.903-0.784,1.451-0.528c0.547,0.254,0.783,0.904,0.528,1.451l-13.979,29.992c-0.173,0.371-0.538,0.613-0.947,0.63
		c-0.413,0.023-0.792-0.198-0.994-0.554l-15.167-26.871l-13.041,24.184c-0.19,0.352-0.557,0.572-0.957,0.574
		c-0.001,0-0.003,0-0.004,0c-0.398,0-0.766-0.217-0.957-0.566l-13.236-24.11l-27.914,55.213c-0.186,0.366-0.559,0.598-0.969,0.599
		c-0.002,0-0.004,0-0.005,0c-0.408,0-0.783-0.228-0.97-0.591l-29.11-56.379l-26.885,56.348c-0.157,0.329-0.467,0.558-0.828,0.611
		c-0.363,0.053-0.723-0.078-0.967-0.348l-2.415-2.669l-25.441-24.707l-27.052,54.307
		C200.099,307.472,199.714,307.694,199.313,307.694z"/>
	<g>
		<circle fill="#FFFFFF" cx="227.578" cy="252.869" r="5.342"/>
		<path fill="#FFBB6F" d="M227.578,258.938c-3.347,0-6.07-2.723-6.07-6.07c0-3.346,2.723-6.069,6.07-6.069
			c3.347,0,6.07,2.723,6.07,6.069C233.647,256.215,230.924,258.938,227.578,258.938z M227.578,248.255
			c-2.544,0-4.614,2.07-4.614,4.614c0,2.545,2.07,4.614,4.614,4.614s4.614-2.07,4.614-4.614
			C232.192,250.325,230.122,248.255,227.578,248.255z"/>
	</g>
	<g>
		<circle fill="#FFFFFF" cx="256.234" cy="278.523" r="5.342"/>
		<path fill="#FFBB6F" d="M256.234,284.593c-3.347,0-6.07-2.723-6.07-6.07c0-3.346,2.723-6.069,6.07-6.069
			c3.347,0,6.07,2.723,6.07,6.069C262.304,281.87,259.581,284.593,256.234,284.593z M256.234,273.909
			c-2.544,0-4.614,2.07-4.614,4.614c0,2.544,2.07,4.614,4.614,4.614c2.544,0,4.614-2.07,4.614-4.614
			C260.848,275.979,258.778,273.909,256.234,273.909z"/>
	</g>
	<g>
		<circle fill="#FFFFFF" cx="283.799" cy="220.664" r="5.342"/>
		<path fill="#FFBB6F" d="M283.799,226.734c-3.347,0-6.07-2.723-6.07-6.07c0-3.347,2.723-6.07,6.07-6.07
			c3.347,0,6.07,2.723,6.07,6.07C289.869,224.011,287.146,226.734,283.799,226.734z M283.799,216.05
			c-2.544,0-4.614,2.07-4.614,4.614s2.07,4.614,4.614,4.614s4.614-2.07,4.614-4.614S286.343,216.05,283.799,216.05z"/>
	</g>
	<g>
		<circle fill="#FFFFFF" cx="314.639" cy="277.977" r="5.342"/>
		<path fill="#FFBB6F" d="M314.639,284.047c-3.346,0-6.069-2.723-6.069-6.069c0-3.347,2.723-6.07,6.069-6.07
			c3.347,0,6.07,2.723,6.07,6.07C320.709,281.324,317.986,284.047,314.639,284.047z M314.639,273.363
			c-2.544,0-4.614,2.07-4.614,4.614c0,2.544,2.07,4.614,4.614,4.614c2.544,0,4.614-2.07,4.614-4.614
			C319.253,275.433,317.183,273.363,314.639,273.363z"/>
	</g>
	<g>
		<circle fill="#FFFFFF" cx="342.476" cy="223.667" r="5.342"/>
		<path fill="#FFBB6F" d="M342.476,229.736c-3.346,0-6.069-2.723-6.069-6.07c0-3.347,2.723-6.07,6.069-6.07
			c3.347,0,6.07,2.723,6.07,6.07C348.546,227.013,345.823,229.736,342.476,229.736z M342.476,219.053
			c-2.544,0-4.614,2.07-4.614,4.614c0,2.544,2.07,4.614,4.614,4.614c2.545,0,4.614-2.07,4.614-4.614
			C347.091,221.122,345.021,219.053,342.476,219.053z"/>
	</g>
	<g>
		<circle fill="#FFFFFF" cx="357.487" cy="247.41" r="5.342"/>
		<path fill="#FFBB6F" d="M357.487,253.48c-3.346,0-6.069-2.723-6.069-6.069c0-3.347,2.723-6.07,6.069-6.07
			c3.347,0,6.07,2.723,6.07,6.07C363.557,250.757,360.834,253.48,357.487,253.48z M357.487,242.796c-2.544,0-4.614,2.07-4.614,4.614
			c0,2.544,2.07,4.614,4.614,4.614c2.545,0,4.614-2.07,4.614-4.614C362.101,244.866,360.031,242.796,357.487,242.796z"/>
	</g>
	<g>
		<circle fill="#FFFFFF" cx="371.678" cy="223.667" r="5.342"/>
		<path fill="#FFBB6F" d="M371.679,229.736c-3.346,0-6.069-2.723-6.069-6.07c0-3.347,2.723-6.07,6.069-6.07
			c3.347,0,6.07,2.723,6.07,6.07C377.748,227.013,375.025,229.736,371.679,229.736z M371.679,219.053
			c-2.544,0-4.614,2.07-4.614,4.614c0,2.544,2.07,4.614,4.614,4.614c2.544,0,4.614-2.07,4.614-4.614
			C376.293,221.122,374.223,219.053,371.679,219.053z"/>
	</g>
	<g>
		<circle fill="#FFFFFF" cx="387.781" cy="249.594" r="5.342"/>
		<path fill="#FFBB6F" d="M387.781,255.663c-3.347,0-6.07-2.723-6.07-6.069c0-3.347,2.723-6.07,6.07-6.07
			c3.347,0,6.07,2.723,6.07,6.07C393.851,252.94,391.128,255.663,387.781,255.663z M387.781,244.98c-2.545,0-4.614,2.07-4.614,4.614
			c0,2.544,2.07,4.614,4.614,4.614s4.614-2.07,4.614-4.614C392.395,247.049,390.325,244.98,387.781,244.98z"/>
	</g>
</g>
<g>
	<circle fill="#307EEF" cx="382.913" cy="334.298" r="45.509"/>
	<circle fill="#71ABFF" cx="382.913" cy="334.298" r="30.252"/>
	<g>
		<path fill="#FFFFFF" d="M386.116,316.822c0.28,0.545,0.562,1.13,0.842,1.757c0.281,0.627,0.538,1.272,0.773,1.935h10.709v4.047
			h-23.982v4.295c0,2.721-0.07,5.053-0.21,6.993c-0.14,1.941-0.363,3.68-0.667,5.218c-0.305,1.539-0.709,2.959-1.212,4.26
			s-1.117,2.674-1.843,4.118l-3.898-3.337c0.633-1.278,1.153-2.455,1.563-3.532c0.409-1.077,0.743-2.236,1.001-3.479
			c0.258-1.243,0.439-2.662,0.544-4.26c0.106-1.598,0.159-3.568,0.159-5.91v-8.413h12.64c-0.211-0.568-0.457-1.112-0.738-1.633
			c-0.28-0.521-0.562-1.017-0.842-1.491L386.116,316.822z M383.411,343.978v-7.88h-7.549v-4.082h7.549v-4.047l-1.439-0.958
			l0.737-1.242l4.88,0.816c0.444,0.095,0.668,0.414,0.668,0.958v4.473h8.497v4.082h-8.497v7.88h10.428v4.082h-24.859v-4.082H383.411
			z"/>
	</g>
	<path fill="#2579CC" d="M344.395,333.096c0-23.608,18.934-42.782,42.443-43.195c-1.755-0.217-3.539-0.342-5.353-0.342
		c-23.866,0-43.214,19.348-43.214,43.214c0,23.867,19.348,43.214,43.214,43.214c0.259,0,0.514-0.015,0.771-0.02
		C360.917,373.33,344.395,355.149,344.395,333.096z"/>
	<g>
		<path fill="#FFFFFF" d="M482.59,419.961l-41.782-43.467l-20.146,19.364l41.782,43.467c5.347,5.563,14.192,5.738,19.755,0.391
			C487.762,434.368,487.937,425.524,482.59,419.961z"/>
		<path fill="#FFBB6F" d="M472.519,445.07C472.519,445.07,472.519,445.07,472.519,445.07c-4.238,0-8.189-1.682-11.125-4.737
			l-42.791-44.516l22.245-21.382l42.791,44.517c5.895,6.132,5.701,15.917-0.431,21.812
			C480.319,443.541,476.523,445.07,472.519,445.07z M422.72,395.898l40.773,42.418c2.382,2.478,5.587,3.842,9.025,3.842
			c3.249,0,6.329-1.24,8.672-3.493c4.975-4.782,5.132-12.721,0.35-17.697l-40.773-42.417L422.72,395.898z"/>
	</g>
	<g>
		<path fill="#FFBB6F" d="M469.657,419.918c-0.382,0-0.763-0.149-1.05-0.447l-18.247-18.984c-0.557-0.579-0.539-1.501,0.041-2.058
			c0.579-0.557,1.5-0.539,2.058,0.041l18.247,18.984c0.557,0.579,0.539,1.501-0.041,2.058
			C470.384,419.783,470.021,419.918,469.657,419.918z"/>
		<path fill="#FFBB6F" d="M461.458,427.798c-0.382,0-0.763-0.149-1.05-0.447l-18.247-18.983c-0.557-0.579-0.539-1.501,0.041-2.058
			c0.579-0.556,1.5-0.54,2.058,0.041l18.247,18.983c0.557,0.579,0.539,1.501-0.041,2.058
			C462.184,427.663,461.821,427.798,461.458,427.798z"/>
	</g>
	
		<rect x="437.531" y="382.199" transform="matrix(0.693 0.721 -0.721 0.693 419.3883 -195.2887)" fill="#FFBB6F" width="2.911" height="25.138"/>
	
		<rect x="470.502" y="416.499" transform="matrix(0.693 0.721 -0.721 0.693 454.2404 -208.5289)" fill="#FFBB6F" width="2.911" height="25.138"/>
	
		<rect x="414.695" y="374.391" transform="matrix(0.693 0.7209 -0.7209 0.693 403.6145 -189.3133)" fill="#FFFFFF" width="18.806" height="9.748"/>
	<path fill="#FFBB6F" d="M427.06,391.479l-15.05-15.657l9.126-8.772l15.05,15.657L427.06,391.479z M416.126,375.904l11.016,11.459
		l4.929-4.737l-11.016-11.459L416.126,375.904z"/>
	
		<rect x="416.524" y="369.047" transform="matrix(0.7123 0.7019 -0.7019 0.7123 381.68 -186.2093)" fill="#FDE5C1" width="2.911" height="6.85"/>
	<g>
		<path fill="#FFFFFF" d="M381.485,272.014c-33.557,0-60.76,27.203-60.76,60.76s27.203,60.76,60.76,60.76
			c33.557,0,60.76-27.203,60.76-60.76S415.042,272.014,381.485,272.014z M381.485,375.988c-23.866,0-43.214-19.348-43.214-43.214
			s19.348-43.214,43.214-43.214c23.867,0,43.214,19.348,43.214,43.214S405.352,375.988,381.485,375.988z"/>
		<path fill="#FFBB6F" d="M381.485,394.989c-34.306,0-62.215-27.909-62.215-62.215s27.909-62.216,62.215-62.216
			s62.216,27.91,62.216,62.216S415.79,394.989,381.485,394.989z M381.485,273.47c-32.7,0-59.304,26.604-59.304,59.304
			c0,32.7,26.604,59.304,59.304,59.304c32.701,0,59.304-26.604,59.304-59.304C440.789,300.074,414.185,273.47,381.485,273.47z
			 M381.485,377.444c-24.631,0-44.67-20.038-44.67-44.67c0-24.631,20.038-44.67,44.67-44.67c24.631,0,44.67,20.038,44.67,44.67
			C426.155,357.406,406.116,377.444,381.485,377.444z M381.485,291.016c-23.026,0-41.759,18.733-41.759,41.759
			s18.733,41.759,41.759,41.759s41.759-18.733,41.759-41.759S404.511,291.016,381.485,291.016z"/>
	</g>
</g>
<path fill="#EFF8F8" d="M25.631,35.875c0,0,3.199-19.655,22.932-20.664c6.229-0.319,13.608-0.252,22.932,9.828
	c0,0,11.088-6.048,18.396,1.764c0,0,11.688-14.486,28.98-7.056c4.981,2.14,12.096,7.056,13.608,16.884c0,0,28.98-3.528,24.444,21.42
	c0,0,25.32,2.015,27.468,11.088c4.898,20.683-72.073,16.632-84.421,10.08c0,0-27.468,20.16-54.685,1.26
	c0,0-21.472,15.786-37.296-6.048C1.771,65.848-3.097,44.947,25.631,35.875z"/>
<g>
	<defs>
		<path id="SVGID_1_" d="M25.631,35.875c0,0,3.199-19.655,22.932-20.664c6.229-0.319,13.608-0.252,22.932,9.828
			c0,0,11.088-6.048,18.396,1.764c0,0,11.688-14.486,28.98-7.056c4.981,2.14,12.096,7.056,13.608,16.884
			c0,0,28.98-3.528,24.444,21.42c0,0,25.32,2.015,27.468,11.088c4.898,20.683-72.073,16.632-84.421,10.08
			c0,0-27.468,20.16-54.685,1.26c0,0-21.472,15.786-37.296-6.048C1.771,65.848-3.097,44.947,25.631,35.875z"/>
	</defs>
	<use xlink:href="#SVGID_1_"  overflow="visible" fill="#FFE3A4"/>
	<clipPath id="SVGID_2_">
		<use xlink:href="#SVGID_1_"  overflow="visible"/>
	</clipPath>
	<path clip-path="url(#SVGID_2_)" fill="#FFF1CF" d="M17.819,32.851c0,0-13.86,32.76,12.348,40.572c0,0,14.112,4.032,26.208-5.544
		c0,0,18.144,22.428,52.669-0.252c0,0,26.208,15.876,79.129,0.252c0,0-1.764-7.812-27.468-13.104c0,0,0.504-26.46-26.964-20.664
		c0,0-9.828-32.004-44.101-11.088c0,0-9.324-5.796-18.648-0.504c0,0-23.94-24.444-47.629,6.552L17.819,32.851z"/>
</g>
<g>
	<path fill="#FFE3A4" d="M573.701,156.559c0,0,4.177-27.594,38.653-26.527c9.129,0.282,22.548,1.895,30.885,19.516
		c0,0,7.324-13.013,15.966,4.779c1.44,2.966-4.852,7.784-1.75,12.5c1.861,2.83,15.45,4.629,12.75,8.75c0,0,9.5,4.5,2.25,17.25
		c-1.999,3.516-7.426,7.122-17.847,4.659c0,0-28.043,13.642-54.948,0.758c0,0-22.358,11.937-35.432-9.095
		C559.747,181.943,556.079,160.348,573.701,156.559z"/>
	<path fill="#FFF1CF" d="M576.194,149.663c0,0,3.961-26.169,36.658-25.157c8.658,0.268,21.384,1.797,29.29,18.509
		c0,0,20.735-9.685,28.931,7.188c2.186,4.5,5.211,9.524-1.617,19.946c0,0,8.985,2.875,1.797,15.454
		c-1.903,3.33-8.446,5.211-18.329,2.875c0,0-26.595,12.938-52.112,0.719c0,0-21.204,11.321-33.603-8.625
		C562.961,173.737,559.482,153.257,576.194,149.663z"/>
</g>
<path fill="#F9A716" d="M565.877,222.847c0,0-0.484,13.635-12.185,18.374c0,0,12.378,2.321,11.798,16.246
	c0,0,3.095-14.215,12.571-16.149C578.062,241.317,569.649,239.866,565.877,222.847z"/>
<path opacity="0.5" fill="#F9A716" d="M34.122,383.049c0,0-0.366,10.314-9.217,13.899c0,0,9.363,1.756,8.924,12.289
	c0,0,2.341-10.753,9.51-12.216C43.339,397.021,36.974,395.924,34.122,383.049z"/>
<path opacity="0.5" fill="#F9A716" d="M82.303,253.796c0,0-0.64,18.05-16.13,24.323c0,0,16.386,3.072,15.618,21.506
	c0,0,4.096-18.818,16.642-21.378C98.433,278.247,87.295,276.326,82.303,253.796z"/>
<g>
	<ellipse fill="#7CB50F" cx="201.533" cy="408.466" rx="15.131" ry="2.91"/>
	<g>
		<polygon fill="#769E0A" points="196.816,397.638 196.816,409.172 204.907,409.172 204.907,398.155 		"/>
		<polygon fill="#8EC21E" points="207.489,407.106 204.907,409.172 204.907,397.294 206.801,395.401 207.508,394.687 		"/>
	</g>
	<g>
		<g>
			<polygon fill="#94CC1E" points="202.835,357.318 178.251,399.079 222.124,398.807 			"/>
			<polygon fill="#AAEB24" points="222.124,398.807 227.246,397.964 202.835,357.318 			"/>
		</g>
		<polygon fill="#80BD0F" points="187.239,383.364 215.735,383.414 218.74,390.912 183.362,390.912 		"/>
	</g>
	<g>
		<g>
			<polygon fill="#94CC1E" points="202.484,339.587 179.628,387.546 220.418,387.273 			"/>
			<polygon fill="#AAEB24" points="220.418,387.273 225.181,386.43 202.484,339.587 			"/>
		</g>
		<polygon fill="#80BD0F" points="189.866,366.186 212.477,366.229 214.862,372.629 186.79,372.629 		"/>
	</g>
	<g>
		<g>
			<polygon fill="#94CC1E" points="201.948,322.679 184.843,368.993 215.368,368.73 			"/>
			<polygon fill="#AAEB24" points="215.368,368.73 218.932,367.916 201.948,322.679 			"/>
		</g>
		<polygon fill="#80BD0F" points="193.013,346.44 208.819,346.296 209.977,350.348 191.74,350.348 		"/>
	</g>
	<ellipse fill="#7CB50F" cx="179.535" cy="415.341" rx="10.583" ry="2.035"/>
	<g>
		<polygon fill="#769E0A" points="176.236,407.767 176.236,415.834 181.895,415.834 181.895,408.129 		"/>
		<polygon fill="#8EC21E" points="183.701,414.39 181.895,415.834 181.895,407.527 183.22,406.202 183.715,405.703 		"/>
	</g>
	<g>
		<g>
			<polygon fill="#94CC1E" points="180.446,379.565 163.251,408.775 193.938,408.584 			"/>
			<polygon fill="#AAEB24" points="193.938,408.584 197.52,407.995 180.446,379.565 			"/>
		</g>
		<polygon fill="#80BD0F" points="169.537,397.783 189.469,397.818 191.57,403.063 166.825,403.063 		"/>
	</g>
	<g>
		<g>
			<polygon fill="#94CC1E" points="180.201,367.164 164.214,400.708 192.744,400.517 			"/>
			<polygon fill="#AAEB24" points="192.744,400.517 196.076,399.928 180.201,367.164 			"/>
		</g>
		<polygon fill="#80BD0F" points="171.375,385.768 187.19,385.798 188.858,390.274 169.223,390.274 		"/>
	</g>
	<g>
		<g>
			<polygon fill="#94CC1E" points="179.826,355.337 167.862,387.731 189.212,387.547 			"/>
			<polygon fill="#AAEB24" points="189.212,387.547 191.705,386.978 179.826,355.337 			"/>
		</g>
		<polygon fill="#80BD0F" points="173.576,371.957 184.632,371.856 185.442,374.691 172.685,374.691 		"/>
	</g>
	<g>
		<polygon fill="#94CC1E" points="179.613,351.4 171.654,372.95 185.858,372.827 		"/>
		<polygon fill="#AAEB24" points="185.858,372.827 187.517,372.449 179.613,351.4 		"/>
	</g>
	<ellipse fill="#7CB50F" cx="236.305" cy="418.682" rx="14.008" ry="2.694"/>
	<g>
		<polygon fill="#769E0A" points="231.939,408.658 231.939,419.336 239.429,419.336 239.429,409.136 		"/>
		<polygon fill="#8EC21E" points="241.819,417.423 239.429,419.336 239.429,408.339 241.182,406.586 241.837,405.925 		"/>
	</g>
	<g>
		<g>
			<polygon fill="#8CC11D" points="237.51,371.329 214.751,409.992 255.368,409.739 			"/>
			<polygon fill="#ADED29" points="255.368,409.739 260.11,408.959 237.51,371.329 			"/>
		</g>
		<polygon fill="#7EB312" points="223.072,395.442 249.453,395.489 252.235,402.431 219.482,402.431 		"/>
	</g>
	<g>
		<g>
			<polygon fill="#8ABC1C" points="237.186,354.915 216.026,399.314 253.789,399.062 			"/>
			<polygon fill="#AAEB24" points="253.789,399.062 258.198,398.282 237.186,354.915 			"/>
		</g>
		<polygon fill="#7EB312" points="225.504,379.54 246.437,379.58 248.645,385.504 222.656,385.504 		"/>
	</g>
	<g>
		<g>
			<polygon fill="#8ABC1C" points="236.689,339.261 220.854,382.138 249.114,381.895 			"/>
			<polygon fill="#AAEB24" points="249.114,381.895 252.413,381.141 236.689,339.261 			"/>
		</g>
		<polygon fill="#7EB312" points="228.418,361.259 243.051,361.125 244.123,364.877 227.239,364.877 		"/>
	</g>
	<g>
		<polygon fill="#94CC1E" points="236.409,334.049 225.874,362.573 244.674,362.411 		"/>
		<polygon fill="#AAEB24" points="244.674,362.411 246.869,361.91 236.409,334.049 		"/>
	</g>
</g>
</svg>
